<svg width="16" height="16" viewBox="0 0 16 16" fill="none" xmlns="http://www.w3.org/2000/svg">
<path fill-rule="evenodd" clip-rule="evenodd" d="M13.375 4.25H2.625C2.45924 4.25 2.30027 4.18415 2.18306 4.06694C2.06585 3.94973 2 3.79076 2 3.625C2 3.45924 2.06585 3.30027 2.18306 3.18306C2.30027 3.06585 2.45924 3 2.625 3H13.375C13.5408 3 13.6997 3.06585 13.8169 3.18306C13.9342 3.30027 14 3.45924 14 3.625C14 3.79076 13.9342 3.94973 13.8169 4.06694C13.6997 4.18415 13.5408 4.25 13.375 4.25ZM13.375 8.25H2.625C2.45924 8.25 2.30027 8.18415 2.18306 8.06694C2.06585 7.94973 2 7.79076 2 7.625C2 7.45924 2.06585 7.30027 2.18306 7.18306C2.30027 7.06585 2.45924 7 2.625 7H13.375C13.5408 7 13.6997 7.06585 13.8169 7.18306C13.9342 7.30027 14 7.45924 14 7.625C14 7.79076 13.9342 7.94973 13.8169 8.06694C13.6997 8.18415 13.5408 8.25 13.375 8.25ZM2.625 12.25H13.375C13.5408 12.25 13.6997 12.1842 13.8169 12.0669C13.9342 11.9497 14 11.7908 14 11.625C14 11.4592 13.9342 11.3003 13.8169 11.1831C13.6997 11.0658 13.5408 11 13.375 11H2.625C2.45924 11 2.30027 11.0658 2.18306 11.1831C2.06585 11.3003 2 11.4592 2 11.625C2 11.7908 2.06585 11.9497 2.18306 12.0669C2.30027 12.1842 2.45924 12.25 2.625 12.25Z" fill="black"/>
</svg>
