<svg width="32" height="32" viewBox="0 0 32 32" fill="none" xmlns="http://www.w3.org/2000/svg">
<path d="M12.046 26L2.36602 16.322C2.14126 16.0853 2.01785 15.7701 2.02208 15.4437C2.02631 15.1173 2.15785 14.8055 2.38867 14.5747C2.6195 14.3438 2.93134 14.2123 3.25774 14.2081C3.58414 14.2038 3.89929 14.3272 4.13602 14.552L12.75 23.168L27.868 8.046C28.1033 7.81236 28.4214 7.68124 28.753 7.68124C29.0846 7.68124 29.4027 7.81236 29.638 8.046C29.8717 8.28129 30.0028 8.59942 30.0028 8.931C30.0028 9.26258 29.8717 9.58071 29.638 9.816L13.458 25.996L12.046 26Z" fill="black"/>
</svg>
