<svg width="32" height="32" viewBox="0 0 32 32" fill="none" xmlns="http://www.w3.org/2000/svg">
<path d="M18.216 15.552L27.634 6.134C27.8525 5.89635 27.9708 5.58347 27.9642 5.26069C27.9575 4.9379 27.8264 4.63017 27.5982 4.40175C27.3701 4.17333 27.0625 4.04188 26.7397 4.03485C26.4169 4.02781 26.1039 4.14574 25.866 4.364L16.488 13.742H15.512L6.13402 4.366C6.0178 4.24991 5.87985 4.15785 5.72805 4.09508C5.57625 4.0323 5.41358 4.00004 5.24931 4.00013C5.08504 4.00022 4.9224 4.03267 4.77068 4.09562C4.61895 4.15857 4.48111 4.25078 4.36502 4.367C4.24893 4.48322 4.15687 4.62117 4.09409 4.77297C4.03132 4.92477 3.99905 5.08744 3.99915 5.25171C3.99933 5.58346 4.1313 5.90155 4.36602 6.136L13.74 15.508V16.49L4.36602 25.864C4.14749 26.1017 4.02921 26.4145 4.03588 26.7373C4.04255 27.0601 4.17365 27.3678 4.40181 27.5963C4.62997 27.8247 4.93755 27.9561 5.26033 27.9632C5.5831 27.9702 5.89612 27.8523 6.13402 27.634L15.508 18.26H16.49L25.864 27.634C26.099 27.8681 26.4173 27.9996 26.749 27.9996C27.0808 27.9996 27.399 27.8681 27.634 27.634C27.8686 27.3992 28.0004 27.0809 28.0004 26.749C28.0004 26.4171 27.8686 26.0988 27.634 25.864L18.216 16.446V15.552Z" fill="black"/>
</svg>
