<svg width="32" height="32" viewBox="0 0 32 32" fill="none" xmlns="http://www.w3.org/2000/svg">
<path d="M16 1C14.0302 1 12.0796 1.38799 10.2597 2.14181C8.43986 2.89563 6.78628 4.00052 5.3934 5.3934C4.00052 6.78628 2.89563 8.43986 2.14181 10.2597C1.38799 12.0796 1 14.0302 1 16C1 17.9698 1.38799 19.9204 2.14181 21.7403C2.89563 23.5601 4.00052 25.2137 5.3934 26.6066C6.78628 27.9995 8.43986 29.1044 10.2597 29.8582C12.0796 30.612 14.0302 31 16 31C19.9782 31 23.7936 29.4196 26.6066 26.6066C29.4196 23.7936 31 19.9782 31 16C31 12.0218 29.4196 8.20644 26.6066 5.3934C23.7936 2.58035 19.9782 1 16 1ZM21.634 19.866C21.8676 20.1013 21.9988 20.4194 21.9988 20.751C21.9988 21.0826 21.8676 21.4007 21.634 21.636C21.399 21.8697 21.081 22.0008 20.7496 22.0004C20.4182 22 20.1004 21.8683 19.866 21.634L16.408 18.176L15.594 18.174L12.136 21.632C12.0202 21.7488 11.8824 21.8415 11.7306 21.9048C11.5787 21.9682 11.4159 22.0009 11.2514 22.0011C11.0869 22.0013 10.924 21.9689 10.7721 21.9059C10.6201 21.8429 10.4821 21.7505 10.366 21.634C10.1324 21.3987 10.0012 21.0806 10.0012 20.749C10.0012 20.4174 10.1324 20.0993 10.366 19.864L13.794 16.436V15.562L10.366 12.134C10.1412 11.8973 10.0178 11.5821 10.0221 11.2557C10.0263 10.9293 10.1578 10.6175 10.3887 10.3867C10.6195 10.1558 10.9313 10.0243 11.2577 10.0201C11.5841 10.0158 11.8993 10.1392 12.136 10.364L15.574 13.802H16.43L19.868 10.364C20.1047 10.1392 20.4199 10.0158 20.7463 10.0201C21.0727 10.0243 21.3845 10.1558 21.6153 10.3867C21.8462 10.6175 21.9777 10.9293 21.9819 11.2557C21.9862 11.5821 21.8628 11.8973 21.638 12.134L18.2 15.572V16.428L21.634 19.866Z" fill="black"/>
</svg>
