<svg width="48" height="48" viewBox="0 0 48 48" fill="none" xmlns="http://www.w3.org/2000/svg">
<path d="M23.9999 21.5251L18.4754 16.0006L16.0005 18.4754L21.5251 24L16.0005 29.5246L18.4754 31.9994L23.9999 26.4749L29.5245 31.9994L31.9994 29.5246L26.4748 24L31.9994 18.4754L29.5245 16.0006L23.9999 21.5251Z" fill="black"/>
<path fill-rule="evenodd" clip-rule="evenodd" d="M24 7.5C14.8873 7.5 7.5 14.8873 7.5 24C7.5 33.1127 14.8873 40.5 24 40.5C33.1127 40.5 40.5 33.1127 40.5 24C40.5 14.8873 33.1127 7.5 24 7.5ZM4 24C4 12.9543 12.9543 4 24 4C35.0457 4 44 12.9543 44 24C44 35.0457 35.0457 44 24 44C12.9543 44 4 35.0457 4 24Z" fill="black"/>
</svg>
