<svg width="40" height="40" viewBox="0 0 40 40" fill="none" xmlns="http://www.w3.org/2000/svg">
<path fill-rule="evenodd" clip-rule="evenodd" d="M34.4 8H28V5C28 2.2 25.8 0 23 0H17C14.2 0 12 2.2 12 5V8H5.6C4.6 8 4 8.6 4 9.6C4 10.6 4.6 11.2 5.6 11.2H6V35.2C6 37.8 8.2 40 11 40H29C31.8 40 34 37.8 34 35V11H34.6C35.4 11 36.2 10.4 36.2 9.4C36.2 8.4 35.4 8 34.4 8ZM15 4.6L16.6 3H23.4L25 4.6V8H15V4.6ZM31 35.4L29.4 37H10.6L9 35.4V11H31V35.4ZM15.6 32C16.4 32 17.2 31.4 17.2 30.4V17.4C17.2 16.6 16.6 15.8 15.6 15.8C14.6 15.8 14 16.6 14 17.6V30.6C14 31.4 14.6 32 15.6 32ZM26 30.4C26 31.4 25.2 32 24.4 32C23.6 32 23 31.4 22.8 30.4V17.4C22.8 16.4 23.4 15.8 24.4 15.8C25.4 15.8 26 16.6 26 17.4V30.4Z" fill="black"/>
</svg>
