<svg width="32" height="32" viewBox="0 0 32 32" fill="none" xmlns="http://www.w3.org/2000/svg">
<path fill-rule="evenodd" clip-rule="evenodd" d="M22 6H27.2C28 6 28.6 6.6 28.6 7.2C28.6 7.8 28 8.4 27.4 8.4H26.6V28C26.6 30.2 24.8 32 22.6 32H9.59998C7.39998 32 5.59998 30.2 5.59998 28V8.4H4.79998C3.99998 8.4 3.59998 8 3.59998 7.2C3.59998 6.4 3.99998 6 4.79998 6H9.99998V4C9.99998 1.8 11.8 0 14 0H18C20.2 0 22 1.8 22 4V6ZM13.8 2.4L12.6 3.6V6H19.6V3.6L18.4 2.4H13.8ZM22.8 29.4L24 28.2V8.4H7.99998V28.2L9.19998 29.4H22.8ZM14 24.8C14 25.4 13.4 26 12.8 26C12.2 26 11.6 25.4 11.6 24.8V15.2C11.4 14.6 12 14 12.8 14C13.6 14 14 14.6 14 15.2V24.8ZM20.4 24.8C20.4 25.4 19.8 26 19.2 26C18.6 26 18 25.4 18 24.8V15.2C18 14.6 18.6 14 19.2 14C19.8 14 20.4 14.6 20.4 15.2V24.8Z" fill="black"/>
</svg>
