<svg width="48" height="48" viewBox="0 0 48 48" fill="none" xmlns="http://www.w3.org/2000/svg">
<path d="M25.75 30.0244V6H22.25V30.0252L14.4739 22.2491L11.999 24.724L22.7625 35.4875C23.0907 35.8157 23.5358 36 24 36C24.4641 36 24.9093 35.8156 25.2375 35.4873L35.9988 24.7238L33.5236 22.2491L25.75 30.0244Z" fill="black"/>
<path d="M10 34V39C10 39.8275 10.6725 40.5 11.5 40.5H36.5C37.3275 40.5 38 39.8275 38 39V34H41.5V39C41.5 41.7605 39.2605 44 36.5 44H11.5C8.7395 44 6.5 41.7605 6.5 39V34H10Z" fill="black"/>
</svg>
