<svg width="16" height="16" viewBox="0 0 16 16" fill="none" xmlns="http://www.w3.org/2000/svg">
<path fill-rule="evenodd" clip-rule="evenodd" d="M8.06694 0.183058C8.18415 0.300269 8.25 0.459239 8.25 0.625V8.947L11.558 5.639C11.6764 5.52662 11.8339 5.46491 11.9971 5.46703C12.1603 5.46915 12.3163 5.53492 12.4317 5.65033C12.5471 5.76574 12.6129 5.92166 12.615 6.08486C12.6171 6.24806 12.5554 6.40564 12.443 6.524L7.966 11H7.285L2.807 6.524C2.69462 6.40564 2.63292 6.24806 2.63503 6.08486C2.63715 5.92166 2.70292 5.76574 2.81833 5.65033C2.93374 5.53492 3.08966 5.46915 3.25286 5.46703C3.41606 5.46491 3.57364 5.52662 3.692 5.639L7 8.948V0.625C7 0.459239 7.06585 0.300269 7.18306 0.183058C7.30027 0.0658479 7.45924 0 7.625 0C7.79076 0 7.94973 0.0658479 8.06694 0.183058ZM13.6642 14.4142C13.2891 14.7893 12.7804 15 12.25 15H3C2.46957 15 1.96086 14.7893 1.58579 14.4142C1.21071 14.0391 1 13.5304 1 13V11.625C1 11.4592 1.06585 11.3003 1.18306 11.1831C1.30027 11.0658 1.45924 11 1.625 11C1.79076 11 1.94973 11.0658 2.06694 11.1831C2.18415 11.3003 2.25 11.4592 2.25 11.625V13.15L2.85 13.75H12.4L13 13.15V11.625C13 11.4592 13.0658 11.3003 13.1831 11.1831C13.3003 11.0658 13.4592 11 13.625 11C13.7908 11 13.9497 11.0658 14.0669 11.1831C14.1842 11.3003 14.25 11.4592 14.25 11.625V13C14.25 13.5304 14.0393 14.0391 13.6642 14.4142Z" fill="black"/>
</svg>
