<svg width="48" height="48" viewBox="0 0 48 48" fill="none" xmlns="http://www.w3.org/2000/svg">
<path fill-rule="evenodd" clip-rule="evenodd" d="M10.5546 5.46457C12.5071 3.51202 15.6732 3.51029 17.6254 5.46457L43.4874 31.3266C43.8156 31.6548 44 32.0999 44 32.564V42.25C44 43.2165 43.2165 44 42.25 44H32.564C32.0999 44 31.6548 43.8156 31.3266 43.4874L5.46457 17.6254C3.51116 15.672 3.51116 12.508 5.46457 10.5546L10.5546 5.46457ZM13.0294 7.93945C13.6166 7.35233 14.5658 7.35373 15.1496 7.93847L18.6861 11.475L11.475 18.6861L7.93945 15.1506C7.35287 14.564 7.35287 13.616 7.93945 13.0294L13.0294 7.93945ZM13.9499 21.161L33.2889 40.5H40.5V33.2889L21.161 13.9499L13.9499 21.161Z" fill="black"/>
</svg>
