<svg width="16" height="16" viewBox="0 0 16 16" fill="none" xmlns="http://www.w3.org/2000/svg">
<path d="M0.0189871 13.6641L0.612971 10.4632C0.687968 10.0542 0.884962 9.68021 1.18095 9.38221L9.98168 0.580483C10.7557 -0.192494 12.0146 -0.194494 12.7916 0.580483L14.4195 2.20843C15.1935 2.98341 15.1935 4.24337 14.4195 5.01835L5.61582 13.8211C5.31983 14.1161 4.94584 14.3121 4.53785 14.3871L1.33595 14.981C1.26595 14.993 1.19795 15 1.12995 15C0.832963 15 0.544971 14.883 0.330978 14.6691C0.0679854 14.4051 -0.0490107 14.0301 0.0189871 13.6641ZM12.4716 5.19634L13.6316 4.03638L13.6306 3.1884L11.8106 1.36746L10.9627 1.36846L9.80269 2.52842L12.4716 5.19634ZM4.31086 13.1581C4.47085 13.1281 4.61785 13.0511 4.73384 12.9341L11.5866 6.08131L8.91872 3.4134L2.06593 10.2652C1.94893 10.3832 1.87193 10.5302 1.84093 10.6912L1.36695 13.2481L1.75193 13.6331L4.31086 13.1581Z" fill="black"/>
</svg>
