<svg width="16" height="16" viewBox="0 0 16 16" fill="none" xmlns="http://www.w3.org/2000/svg">
<path d="M14.981 13.6641L14.3871 10.4632C14.3121 10.0542 14.1151 9.68021 13.8191 9.38221L5.01835 0.580483C4.24437 -0.192494 2.98541 -0.194494 2.20843 0.580483L0.580482 2.20843C-0.193494 2.98341 -0.193494 4.24337 0.580482 5.01835L9.38421 13.8211C9.6802 14.1161 10.0542 14.3121 10.4622 14.3871L13.6641 14.981C13.7341 14.993 13.8021 15 13.8701 15C14.1671 15 14.4551 14.883 14.6691 14.6691C14.932 14.4051 15.049 14.0301 14.981 13.6641ZM2.52842 5.19634L1.36846 4.03638L1.36946 3.1884L3.1894 1.36746L4.03738 1.36846L5.19734 2.52842L2.52842 5.19634ZM10.6892 13.1581C10.5292 13.1281 10.3822 13.0511 10.2662 12.9341L3.4134 6.08131L6.08131 3.4134L12.9341 10.2652C13.0511 10.3832 13.1281 10.5302 13.1591 10.6912L13.6331 13.2481L13.2481 13.6331L10.6892 13.1581Z" fill="black"/>
</svg>
