<svg width="40" height="40" viewBox="0 0 40 40" fill="none" xmlns="http://www.w3.org/2000/svg">
<path d="M38.6039 17.744L23.6779 1.53799C21.7919 -0.512012 18.2099 -0.512012 16.3219 1.53799L1.39591 17.744C1.13687 18.0382 1.0033 18.4221 1.02378 18.8136C1.04426 19.205 1.21716 19.5729 1.50547 19.8385C1.79379 20.1041 2.17461 20.2462 2.56643 20.2345C2.95824 20.2229 3.32992 20.0583 3.60191 19.776L3.99991 19.344V33C3.99991 35.758 6.24391 38 8.99991 38H30.9999C33.7559 38 35.9999 35.758 35.9999 33V19.344L36.3959 19.774C36.5289 19.9197 36.6894 20.0377 36.8682 20.121C37.0469 20.2044 37.2405 20.2515 37.4376 20.2597C37.6347 20.2679 37.8314 20.237 38.0165 20.1687C38.2016 20.1004 38.3713 19.9962 38.5159 19.862C38.6611 19.7289 38.7786 19.5685 38.8616 19.3899C38.9446 19.2113 38.9916 19.018 38.9998 18.8213C39.008 18.6245 38.9772 18.428 38.9093 18.2432C38.8413 18.0583 38.7376 17.8887 38.6039 17.744ZM22.9999 35H16.9999V24.2L18.1999 23H21.7999L22.9999 24.2V35ZM32.9999 33.4L31.3999 35H25.9999V25C25.9999 22.242 23.7559 20 20.9999 20H18.9999C17.6743 20.0016 16.4035 20.5289 15.4661 21.4662C14.5288 22.4035 14.0015 23.6744 13.9999 25V35H8.59991L6.99991 33.4V16.086L18.5299 3.56799C18.7207 3.37063 18.9493 3.21368 19.202 3.10649C19.4547 2.9993 19.7264 2.94406 20.0009 2.94406C20.2754 2.94406 20.5471 2.9993 20.7998 3.10649C21.0525 3.21368 21.2811 3.37063 21.4719 3.56799L33.0019 16.086V33.4H32.9999Z" fill="black"/>
</svg>
