<svg width="32" height="32" viewBox="0 0 32 32" fill="none" xmlns="http://www.w3.org/2000/svg">
<path fill-rule="evenodd" clip-rule="evenodd" d="M23.2578 25.6379C23.4923 25.4035 23.624 25.0855 23.624 24.754V24.752L23.614 11.336H27.726C27.9236 11.3365 28.117 11.2783 28.2815 11.1688C28.446 11.0593 28.5744 10.9034 28.6502 10.7209C28.726 10.5384 28.746 10.3375 28.7075 10.1436C28.669 9.94976 28.5738 9.7717 28.434 9.632L22.788 4H21.94L16.294 9.632C16.1551 9.77207 16.0608 9.95006 16.0228 10.1436C15.9849 10.3371 16.005 10.5376 16.0807 10.7197C16.1564 10.9018 16.2842 11.0575 16.4481 11.1672C16.6121 11.2768 16.8047 11.3356 17.002 11.336H21.114L21.124 24.754C21.124 25.0855 21.2557 25.4035 21.4901 25.6379C21.7245 25.8723 22.0424 26.004 22.374 26.004C22.7055 26.004 23.0234 25.8723 23.2578 25.6379ZM8.77633 6.396C8.54389 6.61932 8.40686 6.92392 8.39396 7.246L8.40396 20.664H4.30196C4.10491 20.6648 3.9125 20.7239 3.74888 20.8337C3.58526 20.9435 3.45773 21.0992 3.38231 21.2812C3.30688 21.4633 3.28692 21.6635 3.32493 21.8569C3.36295 22.0502 3.45724 22.2281 3.59596 22.368L9.22796 28H10.074L15.706 22.368C15.8447 22.2281 15.939 22.0502 15.977 21.8569C16.015 21.6635 15.995 21.4633 15.9196 21.2812C15.8442 21.0992 15.7167 20.9435 15.553 20.8337C15.3894 20.7239 15.197 20.6648 15 20.664H10.898L10.888 7.246C10.8751 6.92392 10.738 6.61932 10.5056 6.396C10.2731 6.17267 9.9633 6.04795 9.64096 6.04795C9.31862 6.04795 9.00878 6.17267 8.77633 6.396Z" fill="black"/>
</svg>
