<svg width="40" height="40" viewBox="0 0 40 40" fill="none" xmlns="http://www.w3.org/2000/svg">
<path d="M19.5 1C9.006 1 0.5 9.506 0.5 20C0.5 30.494 9.006 39 19.5 39C29.994 39 38.5 30.494 38.5 20C38.5 9.506 29.994 1 19.5 1ZM21 28.5C21 28.8978 20.842 29.2794 20.5607 29.5607C20.2794 29.842 19.8978 30 19.5 30C19.1022 30 18.7206 29.842 18.4393 29.5607C18.158 29.2794 18 28.8978 18 28.5V17.5C18 17.1022 18.158 16.7206 18.4393 16.4393C18.7206 16.158 19.1022 16 19.5 16C19.8978 16 20.2794 16.158 20.5607 16.4393C20.842 16.7206 21 17.1022 21 17.5V28.5ZM21 12.4L20.4 13H18.6L18 12.4V10.6L18.6 10H20.4L21 10.6V12.4Z" fill="black"/>
</svg>
