<svg width="40" height="40" viewBox="0 0 40 40" fill="none" xmlns="http://www.w3.org/2000/svg">
<path fill-rule="evenodd" clip-rule="evenodd" d="M35.5 20C35.5 11.178 28.322 4 19.5 4C10.678 4 3.5 11.178 3.5 20C3.5 28.822 10.678 36 19.5 36C28.322 36 35.5 28.822 35.5 20ZM0.5 20C0.5 9.506 9.006 1 19.5 1C29.994 1 38.5 9.506 38.5 20C38.5 30.494 29.994 39 19.5 39C9.006 39 0.5 30.494 0.5 20ZM21 10.6L20.4 10H18.6L18 10.6V12.4L18.6 13H20.4L21 12.4V10.6ZM19.5 30C19.1022 30 18.7206 29.842 18.4393 29.5607C18.158 29.2794 18 28.8978 18 28.5V17.5C18 17.1022 18.158 16.7206 18.4393 16.4393C18.7206 16.158 19.1022 16 19.5 16C19.8978 16 20.2794 16.158 20.5607 16.4393C20.842 16.7206 21 17.1022 21 17.5V28.5C21 28.8978 20.842 29.2794 20.5607 29.5607C20.2794 29.842 19.8978 30 19.5 30Z" fill="black"/>
</svg>
