<svg width="48" height="48" viewBox="0 0 48 48" fill="none" xmlns="http://www.w3.org/2000/svg">
<path d="M24 35C25.6569 35 27 36.3431 27 38C27 39.6569 25.6569 41 24 41C22.3431 41 21 39.6569 21 38C21 36.3431 22.3431 35 24 35Z" fill="black"/>
<path d="M24 21C25.6569 21 27 22.3431 27 24C27 25.6569 25.6569 27 24 27C22.3431 27 21 25.6569 21 24C21 22.3431 22.3431 21 24 21Z" fill="black"/>
<path d="M24 7C25.6569 7 27 8.34315 27 10C27 11.6569 25.6569 13 24 13C22.3431 13 21 11.6569 21 10C21 8.34315 22.3431 7 24 7Z" fill="black"/>
</svg>
