<svg width="24" height="24" viewBox="0 0 24 24" fill="none" xmlns="http://www.w3.org/2000/svg">
<path fill-rule="evenodd" clip-rule="evenodd" d="M19.9831 12.5237L18.2368 12.4109C18.2455 12.2753 18.25 12.1383 18.25 12C18.25 11.8617 18.2455 11.7247 18.2368 11.5891L19.9831 11.4763C19.9943 11.6494 20 11.824 20 12C20 12.176 19.9943 12.3506 19.9831 12.5237ZM19.8477 10.4387L18.131 10.7783C18.0777 10.5088 18.007 10.2456 17.9203 9.98995L19.5774 9.42754C19.6887 9.75556 19.7794 10.0931 19.8477 10.4387ZM19.1766 8.46092L17.6076 9.23611C17.4865 8.99094 17.3497 8.75467 17.1983 8.52863L18.6525 7.55507C18.8461 7.84425 19.0214 8.14676 19.1766 8.46092ZM18.0148 6.72519L16.6996 7.87956C16.5193 7.67419 16.3258 7.48069 16.1204 7.30044L17.2748 5.98517C17.5372 6.21551 17.7845 6.46275 18.0148 6.72519ZM16.4449 5.34748L15.4714 6.80167C15.2453 6.65034 15.0091 6.51348 14.7639 6.39235L15.5391 4.82341C15.8532 4.97863 16.1557 5.15388 16.4449 5.34748ZM14.5725 4.42258L14.01 6.07975C13.7544 5.99298 13.4912 5.92233 13.2217 5.869L13.5613 4.15227C13.9069 4.22064 14.2444 4.31126 14.5725 4.42258ZM12.5237 4.01687L12.4109 5.76323C12.2753 5.75446 12.1383 5.75 12 5.75C11.8617 5.75 11.7247 5.75446 11.5891 5.76323L11.4763 4.01687C11.6494 4.00568 11.824 4 12 4C12.176 4 12.3506 4.00568 12.5237 4.01687ZM10.4387 4.15227L10.7783 5.869C10.5088 5.92233 10.2456 5.99298 9.98995 6.07975L9.42754 4.42258C9.75556 4.31126 10.0931 4.22064 10.4387 4.15227ZM8.46092 4.82341L9.23611 6.39235C8.99094 6.51348 8.75467 6.65034 8.52863 6.80167L7.55507 5.34748C7.84425 5.15388 8.14676 4.97863 8.46092 4.82341ZM6.72519 5.98518L7.87956 7.30044C7.67419 7.4807 7.48069 7.67419 7.30044 7.87957L5.98517 6.7252C6.21551 6.46275 6.46275 6.21551 6.72519 5.98518ZM5.34748 7.55508L6.80167 8.52863C6.65034 8.75467 6.51348 8.99094 6.39235 9.23611L4.82341 8.46092C4.97863 8.14676 5.15388 7.84425 5.34748 7.55508ZM4.42258 9.42754L6.07975 9.98995C5.99298 10.2456 5.92233 10.5088 5.869 10.7783L4.15227 10.4387C4.22064 10.0931 4.31126 9.75556 4.42258 9.42754ZM4.01687 11.4763C4.00568 11.6494 4 11.824 4 12C4 12.176 4.00568 12.3506 4.01687 12.5237L5.76323 12.4109C5.75446 12.2753 5.75 12.1383 5.75 12C5.75 11.8617 5.75446 11.7247 5.76323 11.5891L4.01687 11.4763ZM4.15227 13.5613L5.869 13.2217C5.92233 13.4912 5.99298 13.7544 6.07975 14.01L4.42258 14.5725C4.31126 14.2444 4.22064 13.9069 4.15227 13.5613ZM4.82341 15.5391L6.39235 14.7639C6.51348 15.0091 6.65034 15.2453 6.80167 15.4714L5.34748 16.4449C5.15388 16.1557 4.97863 15.8532 4.82341 15.5391ZM5.98518 17.2748L7.30044 16.1204C7.4807 16.3258 7.67419 16.5193 7.87957 16.6996L6.7252 18.0148C6.46275 17.7845 6.21551 17.5372 5.98518 17.2748ZM7.55508 18.6525L8.52863 17.1983C8.75467 17.3497 8.99094 17.4865 9.23611 17.6076L8.46092 19.1766C8.14676 19.0214 7.84425 18.8461 7.55508 18.6525ZM9.42754 19.5774L9.98995 17.9203C10.2456 18.007 10.5088 18.0777 10.7783 18.131L10.4387 19.8477C10.0931 19.7794 9.75556 19.6887 9.42754 19.5774ZM11.4763 19.9831L11.5891 18.2368C11.7247 18.2455 11.8617 18.25 12 18.25C12.1383 18.25 12.2753 18.2455 12.4109 18.2368L12.5237 19.9831C12.3506 19.9943 12.176 20 12 20C11.824 20 11.6494 19.9943 11.4763 19.9831ZM13.5613 19.8477L13.2217 18.131C13.4912 18.0777 13.7544 18.007 14.01 17.9203L14.5725 19.5774C14.2444 19.6887 13.9069 19.7794 13.5613 19.8477ZM15.5391 19.1766C15.8532 19.0214 16.1557 18.8461 16.4449 18.6525L15.4714 17.1983C15.2453 17.3497 15.0091 17.4865 14.7639 17.6076L15.5391 19.1766ZM17.2748 18.0148L16.1204 16.6996C16.3258 16.5193 16.5193 16.3258 16.6996 16.1204L18.0148 17.2748C17.7845 17.5372 17.5372 17.7845 17.2748 18.0148ZM18.6525 16.4449L17.1983 15.4714C17.3497 15.2453 17.4865 15.0091 17.6076 14.7639L19.1766 15.5391C19.0214 15.8532 18.8461 16.1557 18.6525 16.4449ZM19.5774 14.5725L17.9203 14.01C18.007 13.7544 18.0777 13.4912 18.131 13.2217L19.8477 13.5613C19.7794 13.9069 19.6887 14.2444 19.5774 14.5725Z" fill="black"/>
</svg>
