<svg width="32" height="32" viewBox="0 0 32 32" fill="none" xmlns="http://www.w3.org/2000/svg">
<path fill-rule="evenodd" clip-rule="evenodd" d="M27.5 11C27.5 9.622 26.378 8.5 25 8.5C23.622 8.5 22.5 9.622 22.5 11C22.5 12.378 23.622 13.5 25 13.5C26.378 13.5 27.5 12.378 27.5 11ZM21.4645 7.46447C22.4021 6.52678 23.6739 6 25 6C26.3261 6 27.5979 6.52678 28.5355 7.46447C29.4732 8.40215 30 9.67392 30 11C30 12.3261 29.4732 13.5979 28.5355 14.5355C27.5979 15.4732 26.3261 16 25 16C23.6739 16 22.4021 15.4732 21.4645 14.5355C20.5268 13.5979 20 12.3261 20 11C20 9.67392 20.5268 8.40215 21.4645 7.46447ZM18.0819 10.1276V10.1276V10.1276C18.041 10.4148 18 10.7021 18 11C18.0024 11.5047 18.0594 12.0076 18.17 12.5H3.25C2.91848 12.5 2.60054 12.3683 2.36612 12.1339C2.1317 11.8995 2 11.5815 2 11.25C2 10.9185 2.1317 10.6005 2.36612 10.3661C2.60054 10.1317 2.91848 10 3.25 10H18.1L18.0819 10.1276ZM7 18.5C8.378 18.5 9.5 19.622 9.5 21C9.5 22.378 8.378 23.5 7 23.5C5.622 23.5 4.5 22.378 4.5 21C4.5 19.622 5.622 18.5 7 18.5ZM7 16C5.67392 16 4.40215 16.5268 3.46447 17.4645C2.52678 18.4021 2 19.6739 2 21C2 22.3261 2.52678 23.5979 3.46447 24.5355C4.40215 25.4732 5.67392 26 7 26C8.32608 26 9.59785 25.4732 10.5355 24.5355C11.4732 23.5979 12 22.3261 12 21C12 19.6739 11.4732 18.4021 10.5355 17.4645C9.59785 16.5268 8.32608 16 7 16ZM13.9 20H28.75C29.0815 20 29.3995 20.1317 29.6339 20.3661C29.8683 20.6005 30 20.9185 30 21.25C30 21.5815 29.8683 21.8995 29.6339 22.1339C29.3995 22.3683 29.0815 22.5 28.75 22.5H13.83C13.936 22.016 14 21.516 14 21C14 20.7021 13.959 20.4148 13.918 20.1276C13.912 20.085 13.9059 20.0425 13.9 20Z" fill="black"/>
</svg>
