<svg width="48" height="48" viewBox="0 0 48 48" fill="none" xmlns="http://www.w3.org/2000/svg">
<path fill-rule="evenodd" clip-rule="evenodd" d="M30 17C30 13.134 33.134 10 37 10C40.866 10 44 13.134 44 17C44 20.866 40.866 24 37 24C33.134 24 30 20.866 30 17ZM40.5 17C40.5 15.07 38.93 13.5 37 13.5C35.07 13.5 33.5 15.07 33.5 17C33.5 18.93 35.07 20.5 37 20.5C38.93 20.5 40.5 18.93 40.5 17Z" fill="black"/>
<path fill-rule="evenodd" clip-rule="evenodd" d="M4 31C4 27.134 7.134 24 11 24C14.866 24 18 27.134 18 31C18 34.866 14.866 38 11 38C7.134 38 4 34.866 4 31ZM14.5 31C14.5 29.07 12.93 27.5 11 27.5C9.07 27.5 7.5 29.07 7.5 31C7.5 32.93 9.07 34.5 11 34.5C12.93 34.5 14.5 32.93 14.5 31Z" fill="black"/>
<path d="M26.678 15.25H4V18.75H26.676C26.58 18.178 26.5 17.6 26.5 17C26.5 16.4 26.58 15.822 26.678 15.25Z" fill="black"/>
<path d="M21.322 29.25H44V32.75H21.324C21.42 32.178 21.5 31.6 21.5 31C21.5 30.4 21.42 29.822 21.322 29.25Z" fill="black"/>
</svg>
