<svg width="32" height="32" viewBox="0 0 32 32" fill="none" xmlns="http://www.w3.org/2000/svg">
<path d="M5.98401 26.9961V5.00413C5.98363 4.47831 6.12145 3.96163 6.38368 3.50587C6.6459 3.0501 7.02331 2.67126 7.47808 2.40731C7.93284 2.14336 8.449 2.00358 8.97481 2.00197C9.50063 2.00036 10.0176 2.13697 10.474 2.39813L29.716 13.3941C30.1753 13.6565 30.5571 14.0356 30.8227 14.4931C31.0882 14.9506 31.2281 15.4702 31.2281 15.9991C31.2281 16.5281 31.0882 17.0477 30.8227 17.5051C30.5571 17.9626 30.1753 18.3418 29.716 18.6041L10.474 29.6001C10.0178 29.8612 9.50096 29.9978 8.97531 29.9963C8.44967 29.9948 7.93365 29.8552 7.47894 29.5914C7.02423 29.3277 6.64679 28.9492 6.38443 28.4937C6.12206 28.0382 5.98398 27.5218 5.98401 26.9961Z" fill="black"/>
</svg>
