<svg width="12" height="12" viewBox="0 0 12 12" fill="none" xmlns="http://www.w3.org/2000/svg">
<path d="M2 9.999V2.001C2.00006 1.82588 2.0461 1.65385 2.13352 1.50211C2.22094 1.35038 2.34667 1.22426 2.49814 1.13637C2.64961 1.04849 2.8215 1.00192 2.99662 1.00133C3.17174 1.00074 3.34394 1.04614 3.496 1.133L10.496 5.132C10.6489 5.2195 10.7761 5.34586 10.8645 5.49829C10.9529 5.65071 10.9994 5.82379 10.9994 6C10.9994 6.17621 10.9529 6.34929 10.8645 6.50172C10.7761 6.65414 10.6489 6.7805 10.496 6.868L3.496 10.867C3.34394 10.9539 3.17174 10.9993 2.99662 10.9987C2.8215 10.9981 2.64961 10.9515 2.49814 10.8636C2.34667 10.7757 2.22094 10.6496 2.13352 10.4979C2.0461 10.3462 2.00006 10.1741 2 9.999Z" fill="black"/>
</svg>
