<svg width="32" height="32" viewBox="0 0 32 32" fill="none" xmlns="http://www.w3.org/2000/svg">
<path d="M26 4H6C4.93913 4 3.92172 4.42143 3.17157 5.17157C2.42143 5.92172 2 6.93913 2 8V15.048C2 16.932 2.408 18.764 3.12 20.496C3.884 22.226 4.85 23.704 6.124 24.976C7.41741 26.2342 8.93757 27.2359 10.604 27.928C12.334 28.692 14.116 29.048 16.052 29.048C17.9238 29.0348 19.7748 28.6543 21.5 27.928C23.1709 27.2483 24.6803 26.2248 25.93 24.924C27.1882 23.6306 28.1899 22.1104 28.882 20.444C29.636 18.7276 30.0171 16.8707 30 14.996V8C30 6.93913 29.5786 5.92172 28.8284 5.17157C28.0783 4.42143 27.0609 4 26 4ZM23.634 13.046L16.68 20H15.32L8.364 13.046C8.13924 12.8093 8.01583 12.4941 8.02006 12.1677C8.02429 11.8413 8.15584 11.5295 8.38666 11.2987C8.61748 11.0678 8.92932 10.9363 9.25572 10.9321C9.58212 10.9278 9.89727 11.0512 10.134 11.276L16 17.144L21.866 11.276C22.1008 11.0414 22.4191 10.9096 22.751 10.9096C23.0829 10.9096 23.4012 11.0414 23.636 11.276C23.8684 11.5121 23.9985 11.8301 23.9981 12.1614C23.9978 12.4927 23.8669 12.8105 23.634 13.046Z" fill="black"/>
</svg>
