<svg width="16" height="16" viewBox="0 0 16 16" fill="none" xmlns="http://www.w3.org/2000/svg">
<path fill-rule="evenodd" clip-rule="evenodd" d="M13.75 4L13 3.25H3L2.25 4V7.524C2.25684 8.2965 2.41481 9.06018 2.715 9.772C3.00754 10.4538 3.42467 11.0751 3.945 11.604C4.47413 12.1175 5.09576 12.526 5.777 12.808C6.4845 13.122 7.251 13.2808 8.025 13.274C8.79762 13.2674 9.56142 13.1091 10.273 12.808C10.96 12.525 11.562 12.117 12.062 11.596C12.604 11.031 13.004 10.426 13.284 9.746C13.602 9.025 13.75 8.299 13.75 7.498V4ZM3 2H13C13.5304 2 14.0391 2.21071 14.4142 2.58579C14.7893 2.96086 15 3.46957 15 4V7.498C15.0085 8.43533 14.818 9.36379 14.441 10.222C14.0949 11.0552 13.5941 11.8153 12.965 12.462C12.3401 13.1124 11.5855 13.6241 10.75 13.964C9.8874 14.3272 8.9619 14.5174 8.026 14.524C7.058 14.524 6.167 14.346 5.302 13.964C4.46878 13.6179 3.70871 13.1171 3.062 12.488C2.425 11.852 1.942 11.113 1.56 10.248C1.204 9.382 1 8.466 1 7.524V4C1 3.46957 1.21071 2.96086 1.58579 2.58579C1.96086 2.21071 2.46957 2 3 2ZM4.182 6.523L7.66 10H8.34L11.818 6.523C11.9304 6.40463 11.9921 6.24706 11.99 6.08386C11.9879 5.92066 11.9221 5.76474 11.8067 5.64933C11.6913 5.53392 11.5353 5.46815 11.3721 5.46603C11.2089 5.46391 11.0514 5.52562 10.933 5.638L8 8.572L5.067 5.638C4.94864 5.52562 4.79106 5.46391 4.62786 5.46603C4.46466 5.46815 4.30874 5.53392 4.19333 5.64933C4.07792 5.76474 4.01215 5.92066 4.01003 6.08386C4.00792 6.24706 4.06962 6.40463 4.182 6.523Z" fill="black"/>
</svg>
