<svg width="40" height="40" viewBox="0 0 40 40" fill="none" xmlns="http://www.w3.org/2000/svg">
<path d="M27.37 24.148C29.0813 21.7759 30.0015 18.9249 30 16C30 8.282 23.72 2 16 2C8.28 2 2 8.282 2 16C2 23.718 8.28 30 16 30C18.9359 30.0023 21.7972 29.0754 24.174 27.352L25.222 27.34L35.442 37.56C35.581 37.6996 35.7462 37.8103 35.9281 37.8859C36.11 37.9614 36.305 38.0003 36.502 38.0003C36.699 38.0003 36.894 37.9614 37.0759 37.8859C37.2578 37.8103 37.423 37.6996 37.562 37.56C37.7014 37.4207 37.812 37.2553 37.8874 37.0732C37.9628 36.8912 38.0017 36.6961 38.0017 36.499C38.0017 36.3019 37.9628 36.1068 37.8874 35.9248C37.812 35.7427 37.7014 35.5773 37.562 35.438L27.35 25.224L27.37 24.148ZM16 27C9.934 27 5 22.064 5 16C5 9.936 9.934 5 16 5C22.066 5 27 9.936 27 16C27 22.064 22.066 27 16 27Z" fill="black"/>
</svg>
