<svg width="32" height="32" viewBox="0 0 32 32" fill="none" xmlns="http://www.w3.org/2000/svg">
<path d="M20.178 21.946L27.868 29.634C27.9835 29.7509 28.1211 29.8436 28.2727 29.9069C28.4244 29.9701 28.5871 30.0026 28.7514 30.0024C28.9157 30.0022 29.0784 29.9694 29.2299 29.9058C29.3814 29.8422 29.5188 29.7491 29.634 29.632C29.75 29.5158 29.8419 29.3778 29.9046 29.2261C29.9673 29.0744 29.9994 28.9117 29.9992 28.7476C29.9991 28.5834 29.9665 28.4208 29.9035 28.2692C29.8405 28.1176 29.7482 27.9799 29.632 27.864L21.966 20.2L21.978 19.346C22.9779 17.9335 23.6305 16.305 23.8826 14.5928C24.1348 12.8807 23.9794 11.1332 23.4291 9.49242C22.8788 7.85163 21.9491 6.36384 20.7156 5.14996C19.4821 3.93608 17.9796 3.03037 16.3302 2.50644C14.6808 1.98251 12.931 1.85514 11.2231 2.13469C9.51526 2.41424 7.89743 3.09282 6.50114 4.11528C5.10486 5.13773 3.96953 6.47521 3.18741 8.01901C2.4053 9.56281 1.99847 11.2694 2 13C2 15.9174 3.15893 18.7153 5.22183 20.7782C7.28473 22.8411 10.0826 24 13 24C15.378 24 17.576 23.24 19.374 21.956L20.178 21.946ZM13 21.5C8.314 21.5 4.5 17.686 4.5 13C4.5 8.31398 8.314 4.49998 13 4.49998C17.686 4.49998 21.5 8.31398 21.5 13C21.5 17.686 17.686 21.5 13 21.5Z" fill="black"/>
</svg>
