<svg width="24" height="24" viewBox="0 0 24 24" fill="none" xmlns="http://www.w3.org/2000/svg">
<path d="M15.122 16.536L20.292 21.706C20.3841 21.8016 20.4944 21.878 20.6163 21.9305C20.7382 21.9831 20.8694 22.0109 21.0022 22.0122C21.1349 22.0136 21.2666 21.9884 21.3896 21.9383C21.5126 21.8882 21.6243 21.8141 21.7183 21.7204C21.8124 21.6266 21.8868 21.5151 21.9372 21.3923C21.9877 21.2694 22.0132 21.1378 22.0122 21.005C22.0112 20.8722 21.9838 20.741 21.9316 20.6189C21.8794 20.4968 21.8034 20.3864 21.708 20.294L16.536 15.122V14.556C17.4836 13.2254 17.9952 11.6336 18 10C18 5.588 14.412 2 10 2C5.588 2 2 5.588 2 10C2 14.412 5.588 18 10 18C11.7 18 13.26 17.446 14.554 16.534L15.122 16.536ZM4 10C4 6.692 6.692 4 10 4C13.308 4 16 6.692 16 10C16 13.308 13.308 16 10 16C6.692 16 4 13.308 4 10Z" fill="black"/>
</svg>
