<svg width="40" height="40" viewBox="0 0 40 40" fill="none" xmlns="http://www.w3.org/2000/svg">
<path fill-rule="evenodd" clip-rule="evenodd" d="M18.434 40H21.582C22.4439 39.9964 23.2818 39.7159 23.9721 39.1999C24.6624 38.6838 25.1686 37.9596 25.416 37.134L26.486 33.524C27.1883 33.1814 27.863 32.7849 28.504 32.338L32.106 33.234C32.9484 33.4421 33.8356 33.3714 34.6344 33.0324C35.4332 32.6934 36.1004 32.1045 36.536 31.354L38.11 28.628C38.5379 27.8803 38.7142 27.0148 38.6131 26.1593C38.5119 25.3037 38.1385 24.5033 37.548 23.876L34.95 21.136C35.017 20.3587 35.015 19.577 34.944 18.8L37.516 16.132C38.748 14.854 38.99 12.89 38.102 11.354L36.528 8.628C36.0921 7.88538 35.4302 7.30148 34.6391 6.96149C33.8479 6.62149 32.9688 6.54319 32.13 6.738L28.45 7.622C27.814 7.182 27.156 6.798 26.488 6.474L25.418 2.864C24.918 1.178 23.34 0 21.582 0H18.434C17.5661 0.0034006 16.7225 0.287472 16.0294 0.809789C15.3362 1.33211 14.8306 2.06464 14.588 2.898L13.568 6.452C12.876 6.784 12.2 7.174 11.548 7.624L7.86802 6.74C7.02918 6.54161 6.14879 6.61824 5.35684 6.95857C4.5649 7.2989 3.90339 7.88489 3.47002 8.63L1.89602 11.356C1.46436 12.1088 1.28816 12.9812 1.3938 13.8425C1.49944 14.7039 1.88123 15.5078 2.48202 16.134L5.05602 18.8C4.98553 19.577 4.98352 20.3587 5.05002 21.136L2.45202 23.876C1.86163 24.5038 1.48838 25.3045 1.38721 26.1603C1.28603 27.0162 1.46229 27.8819 1.89002 28.63L3.46402 31.358C3.9008 32.1073 4.56821 32.6953 5.36662 33.0341C6.16503 33.3729 7.05162 33.4445 7.89402 33.238L11.496 32.342C12.1546 32.7984 12.8481 33.2023 13.57 33.55L14.59 37.104C14.8323 37.937 15.3376 38.6692 16.0304 39.1912C16.7233 39.7132 17.5665 39.9969 18.434 40ZM12.724 29.524L11.45 29.26L7.17002 30.326C6.95935 30.3776 6.73765 30.3597 6.53798 30.275C6.33831 30.1903 6.17136 30.0433 6.06202 29.856L4.48802 27.13C4.38114 26.9431 4.33706 26.7268 4.36226 26.5129C4.38746 26.2991 4.48061 26.099 4.62802 25.942L7.70202 22.7L8.10202 21.484C8.04202 20.998 8.00002 20.504 8.00002 20C8.00417 19.4842 8.04091 18.9692 8.11002 18.458L7.70202 17.224L4.64002 14.05C4.4903 13.8933 4.39521 13.6924 4.3689 13.4772C4.3426 13.2621 4.38648 13.0442 4.49402 12.856L6.06802 10.13C6.17687 9.94411 6.34241 9.79799 6.54037 9.71305C6.73833 9.6281 6.95829 9.60881 7.16802 9.658L11.518 10.702L12.774 10.436C13.5794 9.8209 14.4598 9.3108 15.394 8.918L16.26 7.948L17.472 3.724C17.5328 3.51571 17.6594 3.33268 17.8328 3.2022C18.0061 3.07172 18.217 3.00079 18.434 3H21.582C21.7979 3.00084 22.0078 3.07109 22.1806 3.20039C22.3535 3.32968 22.4802 3.51116 22.542 3.718L23.806 7.984L24.66 8.94C25.5738 9.3325 26.4357 9.83631 27.226 10.44L28.48 10.702L32.83 9.658C33.0397 9.60849 33.2598 9.62763 33.4579 9.7126C33.6559 9.79757 33.8214 9.94389 33.93 10.13L35.504 12.858C35.612 13.0457 35.6562 13.2634 35.6299 13.4784C35.6035 13.6933 35.5081 13.8939 35.358 14.05L32.296 17.224L31.888 18.458C31.9588 18.969 31.9962 19.4841 32 20C32 20.504 31.958 20.998 31.896 21.48L32.298 22.696L35.372 25.938C35.5194 26.095 35.6126 26.2951 35.6378 26.5089C35.663 26.7228 35.6189 26.9391 35.512 27.126L33.938 29.852C33.8287 30.0394 33.6619 30.1866 33.4623 30.2717C33.2626 30.3567 33.0409 30.3751 32.83 30.324L28.548 29.258L27.274 29.522C26.44 30.162 25.56 30.678 24.66 31.058L23.804 32.014L22.54 36.282C22.416 36.704 22.022 36.998 21.582 36.998H18.434C18.217 36.9972 18.0061 36.9263 17.8328 36.7958C17.6594 36.6653 17.5328 36.4823 17.472 36.274L16.26 32.05L15.396 31.08C14.468 30.694 13.57 30.17 12.724 29.524ZM13 20C13 23.86 16.14 27 20 27C23.86 27 27 23.86 27 20C27 16.14 23.86 13 20 13C16.14 13 13 16.14 13 20ZM16 20C16 17.794 17.794 16 20 16C22.206 16 24 17.794 24 20C24 22.206 22.206 24 20 24C17.794 24 16 22.206 16 20Z" fill="black"/>
</svg>
