<svg width="32" height="32" viewBox="0 0 32 32" fill="none" xmlns="http://www.w3.org/2000/svg">
<path fill-rule="evenodd" clip-rule="evenodd" d="M14.756 32H17.256C17.9558 31.9964 18.6361 31.7689 19.1971 31.3507C19.7582 30.9325 20.1707 30.3456 20.374 29.676L21.224 26.802C21.722 26.552 22.224 26.25 22.742 25.886L25.636 26.606C26.3206 26.7749 27.0415 26.7173 27.6906 26.4418C28.3397 26.1663 28.8819 25.6878 29.236 25.078L30.486 22.912C31.2 21.674 31.012 20.088 30.028 19.05L27.938 16.848C27.972 16.57 28 16.29 28 16C28 15.694 27.972 15.396 27.936 15.1L30.006 12.96C31.006 11.922 31.2 10.328 30.48 9.078L29.23 6.912C28.8774 6.30741 28.3401 5.83191 27.6971 5.55542C27.0541 5.27893 26.3394 5.21604 25.658 5.376L22.702 6.086C22.192 5.73 21.708 5.44 21.224 5.198L20.374 2.326C19.964 0.956 18.684 0 17.256 0H14.756C14.0511 0.00207145 13.3658 0.232591 12.8029 0.656997C12.2401 1.0814 11.8299 1.67683 11.634 2.354L10.822 5.182C10.32 5.428 9.81601 5.728 9.30001 6.086L6.34601 5.376C5.66433 5.2159 4.94928 5.27871 4.30596 5.55519C3.66263 5.83168 3.12497 6.30725 2.77201 6.912L1.52201 9.078C1.1713 9.68929 1.02813 10.3978 1.11394 11.0973C1.19976 11.7968 1.50994 12.4496 1.99801 12.958L4.06401 15.1C4.02801 15.396 4.00001 15.694 4.00001 16C4.00297 16.2838 4.02435 16.567 4.06401 16.848L1.97401 19.05C1.49374 19.5596 1.18997 20.21 1.10751 20.9054C1.02504 21.6008 1.16825 22.3042 1.51601 22.912L2.76601 25.076C3.12018 25.6853 3.66204 26.1635 4.31058 26.4393C4.95911 26.7151 5.67949 26.7736 6.36401 26.606L9.26001 25.886C9.75545 26.236 10.277 26.5476 10.82 26.818L11.632 29.646C11.8286 30.3232 12.2392 30.9185 12.8023 31.3428C13.3655 31.7671 14.0509 31.9977 14.756 32ZM10.28 23.536L9.22401 23.318L5.75801 24.18C5.60021 24.2176 5.43452 24.2037 5.28518 24.1404C5.13584 24.077 5.01068 23.9676 4.92801 23.828L3.67801 21.662C3.5986 21.5213 3.56606 21.3591 3.58512 21.1987C3.60418 21.0383 3.67384 20.8881 3.78401 20.77L6.28401 18.136L6.61801 17.126L6.57401 16.778C6.5697 16.7456 6.5653 16.7131 6.56089 16.6807C6.53051 16.457 6.50001 16.2323 6.50001 16C6.50659 15.7077 6.53466 15.4162 6.58401 15.128L6.62601 14.828L6.28401 13.8L3.79601 11.222C3.68333 11.105 3.61169 10.9546 3.59185 10.7934C3.57202 10.6321 3.60506 10.4688 3.68601 10.328L4.93601 8.162C5.01885 8.02351 5.14331 7.91471 5.29164 7.85114C5.43997 7.78757 5.60459 7.77247 5.76201 7.808L9.27601 8.652L10.318 8.434C10.9405 7.95084 11.6211 7.54769 12.344 7.234L13.064 6.424L14.036 3.042C14.0817 2.88618 14.1764 2.74925 14.3061 2.6516C14.4358 2.55394 14.5936 2.50077 14.756 2.5H17.256C17.4182 2.49922 17.5762 2.55132 17.7061 2.6484C17.836 2.74547 17.9308 2.88225 17.976 3.038L18.988 6.452L19.7 7.248C20.407 7.56098 21.0727 7.95999 21.682 8.436L22.724 8.652L26.24 7.808C26.3971 7.77198 26.5617 7.78687 26.7098 7.8505C26.8579 7.91414 26.982 8.02323 27.064 8.162L28.314 10.326C28.3945 10.4673 28.4272 10.6308 28.4074 10.7922C28.3876 10.9536 28.3163 11.1043 28.204 11.222L25.716 13.8L25.374 14.826L25.416 15.126C25.458 15.414 25.5 15.702 25.5 16C25.5 16.266 25.46 16.522 25.418 16.776L25.374 17.124L25.708 18.134L28.208 20.768C28.3187 20.8858 28.3888 21.036 28.4079 21.1966C28.4269 21.3571 28.394 21.5195 28.314 21.66L27.064 23.826C26.9817 23.9664 26.8563 24.0765 26.7064 24.1399C26.5565 24.2034 26.3901 24.2167 26.232 24.178L22.77 23.316L21.712 23.534C20.982 24.09 20.34 24.476 19.692 24.75L18.982 25.546L17.97 28.96C17.9258 29.1159 17.8316 29.253 17.7018 29.3502C17.5721 29.4474 17.4141 29.4993 17.252 29.498H14.752C14.42 29.498 14.124 29.276 14.032 28.956L13.062 25.574L12.344 24.766C11.6064 24.4456 10.9128 24.0322 10.28 23.536ZM19.5 16C19.5 14.07 17.93 12.5 16 12.5C14.07 12.5 12.5 14.07 12.5 16C12.5 17.93 14.07 19.5 16 19.5C17.93 19.5 19.5 17.93 19.5 16ZM11.7574 11.7574C12.8826 10.6321 14.4087 10 16 10C17.5913 10 19.1174 10.6321 20.2426 11.7574C21.3679 12.8826 22 14.4087 22 16C22 17.5913 21.3679 19.1174 20.2426 20.2426C19.1174 21.3679 17.5913 22 16 22C14.4087 22 12.8826 21.3679 11.7574 20.2426C10.6321 19.1174 10 17.5913 10 16C10 14.4087 10.6321 12.8826 11.7574 11.7574Z" fill="black"/>
</svg>
