<svg width="16" height="16" viewBox="0 0 16 16" fill="none" xmlns="http://www.w3.org/2000/svg">
<path d="M6.655 0.626953C3.155 1.26095 0.5 4.31795 0.5 7.99995C0.5 9.98908 1.29018 11.8967 2.6967 13.3033C4.10322 14.7098 6.01088 15.5 8 15.5C9.98912 15.5 11.8968 14.7098 13.3033 13.3033C14.7098 11.8967 15.5 9.98908 15.5 7.99995L15.263 7.75395C14.857 7.86395 14.433 7.92695 14 7.96095V8.59995L13.6 8.99995H12.4L12 8.59995V7.81895C10.5772 7.48186 9.3096 6.67473 8.40227 5.52805C7.49495 4.38137 7.00089 2.96218 7 1.49995C7 1.30095 7.012 1.10495 7.032 0.910953L6.655 0.626953ZM2.4 8.99995L2 8.59995V7.39995L2.4 6.99995H3.6L4 7.39995V8.59995L3.6 8.99995H2.4ZM6 12.6L5.6 13H4.4L4 12.6V11.4L4.4 11H5.6L6 11.4V12.6ZM6 4.59995L5.6 4.99995H4.4L4 4.59995V3.39995L4.4 2.99995H5.6L6 3.39995V4.59995ZM9 8.59995L8.6 8.99995H7.4L7 8.59995V7.39995L7.4 6.99995H8.6L9 7.39995V8.59995ZM12 12.6L11.6 13H10.4L10 12.6V11.4L10.4 11H11.6L12 11.4V12.6Z" fill="black"/>
</svg>
