<svg width="40" height="40" viewBox="0 0 40 40" fill="none" xmlns="http://www.w3.org/2000/svg">
<path fill-rule="evenodd" clip-rule="evenodd" d="M21.25 6.99996C21.5796 6.99623 21.904 7.08207 22.1886 7.24833C22.4732 7.41459 22.7073 7.65503 22.866 7.94396L36.532 32.238C37.002 33.074 36.678 33.806 36.516 34.082C36.354 34.358 35.876 35 34.916 35H7.58397C6.62397 35 6.14597 34.358 5.98397 34.082C5.82197 33.806 5.49797 33.074 5.96797 32.238L19.634 7.94396C19.7926 7.65503 20.0267 7.41459 20.3113 7.24833C20.596 7.08207 20.9204 6.99623 21.25 6.99996ZM21.25 3.99996C19.598 3.99996 17.948 4.82396 17.02 6.47396L3.35397 30.768C1.53597 34.002 3.87197 38 7.58397 38H34.914C38.626 38 40.964 34.002 39.144 30.768L25.48 6.47396C25.0618 5.71994 24.4484 5.09236 23.7041 4.65706C22.9599 4.22176 22.1122 3.99479 21.25 3.99996ZM21.5 14C21.1022 14 20.7206 14.158 20.4393 14.4393C20.158 14.7206 20 15.1021 20 15.5V22.5C20 22.8978 20.158 23.2793 20.4393 23.5606C20.7206 23.8419 21.1022 24 21.5 24C21.8978 24 22.2794 23.8419 22.5607 23.5606C22.842 23.2793 23 22.8978 23 22.5V15.5C23 15.1021 22.842 14.7206 22.5607 14.4393C22.2794 14.158 21.8978 14 21.5 14ZM20 29.4L20.6 30H22.4L23 29.4V27.6L22.4 27H20.6L20 27.6V29.4Z" fill="black"/>
</svg>
