<svg width="40" height="40" viewBox="0 0 40 40" fill="none" xmlns="http://www.w3.org/2000/svg">
<path d="M39.146 30.768L25.48 6.474C24.552 4.824 22.902 4 21.25 4C19.598 4 17.948 4.824 17.02 6.474L3.35397 30.768C1.53597 34.002 3.87197 38 7.58397 38H34.914C38.628 38 40.964 34.002 39.146 30.768ZM23 31.4L22.4 32H20.6L20 31.4V29.6L20.6 29H22.4L23 29.6V31.4ZM23 24.5C23 24.8978 22.8419 25.2794 22.5606 25.5607C22.2793 25.842 21.8978 26 21.5 26C21.1021 26 20.7206 25.842 20.4393 25.5607C20.158 25.2794 20 24.8978 20 24.5V13.5C20 13.1022 20.158 12.7206 20.4393 12.4393C20.7206 12.158 21.1021 12 21.5 12C21.8978 12 22.2793 12.158 22.5606 12.4393C22.8419 12.7206 23 13.1022 23 13.5V24.5Z" fill="black"/>
</svg>
