<svg width="32" height="32" viewBox="0 0 32 32" fill="none" xmlns="http://www.w3.org/2000/svg">
<path d="M29.75 24.074L18.756 4.074C17.994 2.692 16.622 2 15.25 2C13.878 2 12.506 2.692 11.746 4.074L0.752012 24.074C-0.715988 26.74 1.21401 30 4.25601 30H26.246C29.286 30 31.216 26.74 29.75 24.074ZM16.5 23.5L16 24H14.5L14 23.5V22L14.5 21.5H16L16.5 22V23.5ZM16.5 18.124C16.5 18.4555 16.3683 18.7735 16.1339 19.0079C15.8995 19.2423 15.5815 19.374 15.25 19.374C14.9185 19.374 14.6005 19.2423 14.3661 19.0079C14.1317 18.7735 14 18.4555 14 18.124V11.25C14 10.9185 14.1317 10.6005 14.3661 10.3661C14.6005 10.1317 14.9185 10 15.25 10C15.5815 10 15.8995 10.1317 16.1339 10.3661C16.3683 10.6005 16.5 10.9185 16.5 11.25V18.124Z" fill="black"/>
</svg>
