<?xml version="1.0" encoding="UTF-8" standalone="no"?>
<!-- Created with Inkscape (http://www.inkscape.org/) -->
<svg xmlns:dc="http://purl.org/dc/elements/1.1/" xmlns:cc="http://creativecommons.org/ns#" xmlns:rdf="http://www.w3.org/1999/02/22-rdf-syntax-ns#" xmlns:svg="http://www.w3.org/2000/svg" xmlns="http://www.w3.org/2000/svg" version="1.1" width="1312" height="736" id="svg2">
  <metadata id="metadata29">
    <rdf:RDF>
      <cc:Work rdf:about="">
        <dc:format>image/svg+xml</dc:format>
        <dc:type rdf:resource="http://purl.org/dc/dcmitype/StillImage"/>
        <dc:title/>
      </cc:Work>
    </rdf:RDF>
  </metadata>
  <defs id="defs27"/>
  <rect width="636" height="636" x="24" y="52" id="rect3801" style="fill:#71ff71;fill-opacity:1;stroke:none"/>
  <rect width="540" height="540" x="72" y="100" id="rect3005" style="fill:#ffffff;fill-opacity:1;fill-rule:evenodd;stroke:none"/>
  <path d="m 72,100 0,12 0,12 0,12 0,12 0,12 0,12 0,12 12,0 12,0 12,0 12,0 12,0 12,0 12,0 0,-12 0,-12 0,-12 0,-12 0,-12 0,-12 0,-12 -12,0 -12,0 -12,0 -12,0 -12,0 -12,0 -12,0 z m 180,0 0,12 12,0 12,0 12,0 0,-12 -12,0 -12,0 -12,0 z m 0,12 -12,0 0,12 0,12 -12,0 0,-12 0,-12 -12,0 -12,0 0,12 -12,0 0,12 12,0 12,0 0,12 12,0 0,12 12,0 12,0 0,-12 0,-12 12,0 0,-12 -12,0 0,-12 z m 0,48 0,12 12,0 0,-12 -12,0 z m 12,0 12,0 0,-12 -12,0 0,12 z m 12,-12 12,0 12,0 0,12 12,0 0,12 0,12 0,12 -12,0 0,12 -12,0 0,12 0,12 12,0 12,0 0,-12 12,0 0,-12 12,0 12,0 0,12 12,0 0,12 -12,0 0,12 0,12 12,0 12,0 0,-12 0,-12 0,-12 12,0 0,12 12,0 0,-12 0,-12 -12,0 0,-12 -12,0 0,-12 0,-12 0,-12 0,-12 12,0 0,-12 -12,0 0,-12 0,-12 -12,0 0,-12 -12,0 0,12 -12,0 0,12 12,0 12,0 0,12 -12,0 0,12 -12,0 -12,0 -12,0 0,-12 -12,0 0,-12 -12,0 -12,0 0,12 0,12 z m 24,-24 12,0 0,-12 -12,0 0,12 z m 12,-12 12,0 0,-12 -12,0 0,12 z m 60,0 12,0 0,12 0,12 12,0 0,12 0,12 12,0 0,-12 12,0 0,-12 0,-12 0,-12 -12,0 0,-12 -12,0 -12,0 -12,0 0,12 z m 48,36 0,12 0,12 12,0 0,-12 12,0 0,12 12,0 0,12 12,0 0,-12 0,-12 12,0 12,0 12,0 12,0 0,-12 0,-12 -12,0 0,-12 0,-12 -12,0 0,12 0,12 0,12 -12,0 0,-12 0,-12 0,-12 -12,0 0,-12 -12,0 0,12 0,12 12,0 0,12 -12,0 0,-12 -12,0 -12,0 0,12 0,12 -12,0 z m 84,-36 12,0 0,-12 -12,0 0,12 z m -36,72 0,12 0,12 -12,0 0,12 12,0 0,12 12,0 0,-12 12,0 0,-12 -12,0 0,-12 0,-12 -12,0 z m 12,0 12,0 0,-12 -12,0 0,12 z m 12,0 0,12 0,12 12,0 0,-12 0,-12 -12,0 z m 12,0 12,0 0,-12 -12,0 0,12 z m 0,24 0,12 0,12 12,0 12,0 0,12 0,12 12,0 0,-12 0,-12 0,-12 12,0 0,12 0,12 0,12 -12,0 0,12 12,0 12,0 12,0 0,12 -12,0 0,12 12,0 12,0 0,12 12,0 0,12 0,12 12,0 0,-12 0,-12 0,-12 -12,0 0,-12 0,-12 12,0 0,-12 -12,0 -12,0 -12,0 0,-12 12,0 12,0 0,-12 0,-12 -12,0 0,-12 12,0 0,-12 -12,0 -12,0 -12,0 0,12 12,0 0,12 0,12 -12,0 0,-12 0,-12 -12,0 -12,0 0,-12 -12,0 -12,0 0,12 12,0 0,12 -12,0 0,-12 -12,0 z m 96,0 0,12 12,0 0,-12 -12,0 z m 0,120 -12,0 -12,0 0,-12 -12,0 0,12 -12,0 -12,0 0,-12 -12,0 0,12 0,12 -12,0 -12,0 0,12 -12,0 -12,0 -12,0 0,12 -12,0 -12,0 0,12 0,12 12,0 0,12 12,0 0,12 0,12 0,12 12,0 12,0 0,-12 -12,0 0,-12 0,-12 12,0 0,-12 0,-12 0,-12 12,0 0,12 0,12 0,12 0,12 -12,0 0,12 12,0 12,0 12,0 0,-12 0,-12 12,0 0,12 12,0 0,-12 12,0 0,12 -12,0 0,12 0,12 12,0 12,0 12,0 0,-12 12,0 0,-12 -12,0 0,-12 0,-12 12,0 0,-12 -12,0 0,-12 0,-12 -12,0 -12,0 0,-12 12,0 12,0 0,12 12,0 0,-12 0,-12 z m 0,60 0,12 12,0 0,-12 -12,0 z m 0,36 0,12 12,0 0,-12 -12,0 z m -48,12 -12,0 -12,0 0,12 0,12 0,12 12,0 0,-12 12,0 0,-12 0,-12 z m -24,36 -12,0 0,12 12,0 0,-12 z m -12,12 -12,0 0,12 12,0 0,-12 z m 0,12 0,12 -12,0 -12,0 0,-12 -12,0 0,-12 -12,0 0,12 0,12 12,0 0,12 12,0 12,0 12,0 12,0 0,-12 0,-12 -12,0 z m 12,24 0,12 -12,0 -12,0 -12,0 -12,0 0,12 12,0 12,0 0,12 0,12 -12,0 0,-12 -12,0 0,-12 -12,0 0,12 -12,0 0,12 12,0 0,12 12,0 12,0 12,0 0,12 12,0 0,12 12,0 0,-12 12,0 12,0 0,12 -12,0 -12,0 0,12 12,0 12,0 12,0 0,12 12,0 12,0 0,-12 -12,0 0,-12 0,-12 -12,0 0,-12 12,0 0,12 12,0 0,12 12,0 0,12 12,0 0,-12 0,-12 -12,0 0,-12 12,0 0,-12 -12,0 0,-12 -12,0 0,12 -12,0 -12,0 0,-12 0,-12 12,0 0,-12 -12,0 0,-12 12,0 0,-12 12,0 0,-12 -12,0 0,-12 12,0 0,-12 0,-12 -12,0 0,12 -12,0 -12,0 0,12 0,12 -12,0 0,12 12,0 0,12 -12,0 -12,0 z m 60,-36 0,12 12,0 12,0 0,-12 0,-12 0,-12 0,-12 -12,0 0,12 0,12 0,12 -12,0 z m 0,24 0,12 12,0 0,-12 -12,0 z m 0,12 -12,0 0,12 12,0 0,-12 z m 0,12 0,12 12,0 0,12 12,0 0,-12 0,-12 -12,0 -12,0 z m 0,12 -12,0 0,12 12,0 0,-12 z m 0,84 0,12 12,0 0,-12 -12,0 z m -60,-12 -12,0 0,12 0,12 12,0 0,-12 0,-12 z m -12,0 0,-12 -12,0 0,12 12,0 z m -12,0 -12,0 0,12 12,0 0,-12 z m -48,-48 -12,0 0,12 0,12 12,0 0,-12 0,-12 z m -12,24 -12,0 0,12 12,0 0,-12 z m -12,12 -12,0 -12,0 -12,0 0,12 12,0 0,12 12,0 0,12 12,0 0,-12 12,0 0,-12 -12,0 0,-12 z m 12,24 0,12 12,0 0,-12 -12,0 z m 12,0 12,0 0,12 12,0 0,-12 0,-12 -12,0 0,-12 -12,0 0,12 0,12 z m -60,-12 -12,0 0,12 12,0 0,-12 z m -12,12 -12,0 -12,0 -12,0 0,12 12,0 12,0 12,0 0,-12 z m 0,-12 0,-12 -12,0 0,12 12,0 z m -12,-12 0,-12 0,-12 12,0 0,-12 0,-12 -12,0 0,-12 0,-12 0,-12 -12,0 -12,0 0,12 -12,0 0,-12 0,-12 -12,0 -12,0 0,12 0,12 -12,0 0,12 12,0 0,12 -12,0 0,12 -12,0 0,12 12,0 12,0 0,12 12,0 12,0 12,0 0,12 -12,0 0,12 12,0 12,0 0,-12 12,0 z m -36,12 -12,0 0,-12 -12,0 -12,0 -12,0 0,12 0,12 12,0 0,-12 12,0 0,12 12,0 12,0 0,-12 z m -36,-84 0,-12 -12,0 -12,0 0,12 -12,0 0,12 -12,0 -12,0 0,12 12,0 12,0 12,0 0,-12 12,0 0,-12 12,0 z m -24,-12 0,-12 -12,0 0,12 12,0 z m -12,-12 0,-12 -12,0 -12,0 -12,0 0,-12 -12,0 0,-12 12,0 12,0 0,-12 -12,0 0,-12 -12,0 0,12 -12,0 0,12 -12,0 -12,0 0,12 -12,0 0,12 12,0 0,12 0,12 12,0 0,12 12,0 0,-12 12,0 0,12 -12,0 0,12 0,12 -12,0 0,12 0,12 12,0 0,-12 12,0 12,0 0,-12 -12,0 0,-12 12,0 0,-12 12,0 0,-12 12,0 0,-12 12,0 z m -96,-12 -12,0 0,12 -12,0 0,12 12,0 12,0 0,-12 0,-12 z m -12,0 0,-12 -12,0 0,12 12,0 z m 24,-24 0,-12 0,-12 -12,0 0,-12 0,-12 -12,0 0,12 -12,0 0,12 12,0 0,12 12,0 0,12 12,0 z m -24,-12 -12,0 -12,0 0,-12 -12,0 0,-12 0,-12 0,-12 12,0 0,-12 12,0 12,0 0,12 12,0 0,-12 12,0 0,-12 0,-12 12,0 0,-12 -12,0 0,-12 12,0 0,12 12,0 0,-12 0,-12 -12,0 0,-12 0,-12 0,-12 -12,0 0,12 -12,0 -12,0 -12,0 0,12 12,0 0,12 -12,0 -12,0 -12,0 0,-12 -12,0 0,-12 -12,0 0,12 -12,0 0,12 -12,0 0,12 12,0 0,12 12,0 0,-12 0,-12 12,0 0,12 0,12 12,0 0,12 -12,0 0,12 -12,0 0,12 -12,0 -12,0 0,12 12,0 0,12 12,0 0,-12 12,0 0,12 -12,0 0,12 12,0 0,12 -12,0 0,-12 -12,0 0,12 0,12 12,0 0,12 -12,0 0,12 12,0 0,12 12,0 0,-12 12,0 0,12 -12,0 0,12 12,0 0,12 -12,0 -12,0 -12,0 0,12 12,0 12,0 0,12 12,0 12,0 0,-12 0,-12 0,-12 0,-12 0,-12 0,-12 12,0 12,0 0,-12 z m -72,72 -12,0 0,12 12,0 0,-12 z m 12,-36 -12,0 0,-12 -12,0 0,12 0,12 12,0 12,0 0,-12 z m 0,-108 0,-12 -12,0 0,12 12,0 z m -12,-12 0,-12 -12,0 0,12 12,0 z m 12,-60 0,-12 -12,0 -12,0 0,12 12,0 12,0 z m 0,-12 12,0 0,12 12,0 0,12 12,0 0,-12 0,-12 -12,0 0,-12 -12,0 -12,0 0,12 z m 0,-12 0,-12 -12,0 -12,0 0,12 12,0 12,0 z m 24,0 12,0 0,12 12,0 12,0 12,0 12,0 0,-12 -12,0 0,-12 -12,0 0,12 -12,0 0,-12 12,0 0,-12 -12,0 -12,0 0,12 -12,0 0,12 z m 48,-12 12,0 0,-12 12,0 0,-12 0,-12 12,0 0,12 12,0 12,0 0,-12 -12,0 0,-12 -12,0 -12,0 0,-12 12,0 0,-12 -12,0 -12,0 0,-12 0,-12 0,-12 -12,0 0,12 0,12 0,12 0,12 12,0 0,12 -12,0 0,-12 -12,0 -12,0 0,12 12,0 0,12 12,0 12,0 0,12 -12,0 0,12 0,12 z m -12,-36 -12,0 0,12 12,0 0,-12 z m 24,-72 12,0 0,12 12,0 0,-12 12,0 0,-12 -12,0 -12,0 0,-12 0,-12 -12,0 0,-12 0,-12 -12,0 0,12 0,12 0,12 12,0 0,12 0,12 z m 36,0 0,12 12,0 0,-12 -12,0 z m 0,12 -12,0 0,12 12,0 0,-12 z m 0,12 0,12 0,12 0,12 12,0 0,12 12,0 0,-12 0,-12 12,0 12,0 12,0 0,-12 -12,0 0,-12 -12,0 0,12 -12,0 -12,0 0,-12 -12,0 z m 36,0 0,-12 0,-12 -12,0 0,12 0,12 12,0 z m 24,12 12,0 0,-12 -12,0 0,12 z m -84,96 12,0 0,12 12,0 0,-12 12,0 12,0 0,-12 0,-12 -12,0 0,12 -12,0 0,-12 -12,0 0,12 -12,0 0,12 z m 24,-24 12,0 0,-12 -12,0 0,12 z m 24,24 0,12 12,0 0,-12 -12,0 z m 12,0 12,0 0,-12 0,-12 -12,0 0,12 0,12 z m 12,-24 12,0 12,0 0,-12 -12,0 0,-12 -12,0 0,-12 0,-12 -12,0 0,12 0,12 0,12 12,0 0,12 z m -12,36 0,12 12,0 12,0 0,12 12,0 0,12 12,0 0,12 12,0 0,12 0,12 -12,0 0,-12 0,-12 -12,0 0,12 -12,0 -12,0 0,-12 12,0 0,-12 0,-12 -12,0 -12,0 0,12 -12,0 0,-12 0,-12 0,-12 -12,0 -12,0 0,12 0,12 0,12 12,0 0,12 12,0 0,12 12,0 0,12 0,12 12,0 0,-12 12,0 0,12 -12,0 0,12 12,0 0,12 12,0 0,-12 12,0 12,0 12,0 0,-12 12,0 0,12 12,0 0,12 -12,0 -12,0 -12,0 0,12 12,0 0,12 12,0 0,-12 12,0 12,0 0,12 0,12 -12,0 0,-12 -12,0 0,12 -12,0 0,-12 -12,0 0,12 0,12 -12,0 -12,0 -12,0 0,12 0,12 12,0 0,-12 12,0 0,12 -12,0 0,12 12,0 12,0 0,-12 0,-12 12,0 0,-12 12,0 12,0 0,12 12,0 0,-12 12,0 0,-12 12,0 0,-12 -12,0 0,-12 12,0 0,-12 -12,0 -12,0 0,-12 0,-12 12,0 0,-12 0,-12 0,-12 12,0 0,-12 -12,0 0,-12 -12,0 0,-12 -12,0 0,12 -12,0 0,-12 12,0 0,-12 0,-12 -12,0 0,12 -12,0 0,12 0,12 -12,0 0,-12 0,-12 0,-12 -12,0 0,12 -12,0 -12,0 -12,0 -12,0 z m 48,-12 0,-12 -12,0 0,12 12,0 z m 0,-12 12,0 12,0 0,12 12,0 0,-12 0,-12 12,0 0,12 12,0 0,-12 12,0 0,-12 -12,0 -12,0 0,-12 -12,0 -12,0 0,12 -12,0 0,12 -12,0 0,12 z m 24,-36 0,-12 -12,0 0,12 12,0 z m 0,-12 12,0 0,-12 -12,0 0,12 z m 48,24 12,0 0,-12 -12,0 0,12 z m 12,-12 12,0 0,12 -12,0 0,12 12,0 12,0 12,0 0,-12 12,0 12,0 12,0 0,-12 12,0 0,12 0,12 12,0 12,0 0,12 -12,0 -12,0 0,12 -12,0 0,-12 -12,0 0,12 -12,0 0,-12 -12,0 0,12 0,12 -12,0 0,12 0,12 12,0 12,0 0,12 -12,0 -12,0 0,12 12,0 12,0 12,0 0,-12 12,0 0,-12 0,-12 -12,0 -12,0 0,-12 12,0 12,0 0,12 12,0 0,12 12,0 12,0 0,-12 -12,0 0,-12 0,-12 12,0 0,12 12,0 0,12 12,0 0,-12 12,0 0,-12 12,0 12,0 0,-12 0,-12 -12,0 0,12 -12,0 -12,0 -12,0 0,-12 0,-12 12,0 12,0 0,-12 -12,0 -12,0 -12,0 0,12 -12,0 0,-12 12,0 0,-12 -12,0 -12,0 0,-12 -12,0 0,12 -12,0 0,-12 -12,0 0,12 -12,0 0,-12 -12,0 -12,0 0,12 -12,0 0,12 z m 36,-24 12,0 0,-12 -12,0 0,12 z m 0,-12 0,-12 -12,0 0,12 12,0 z m 12,0 12,0 0,-12 12,0 0,-12 0,-12 -12,0 0,12 -12,0 0,12 0,12 z m 0,-24 0,-12 -12,0 0,-12 -12,0 0,12 0,12 12,0 12,0 z m 0,-12 12,0 0,-12 -12,0 0,12 z m 60,60 12,0 0,-12 -12,0 0,12 z m 36,24 0,12 12,0 0,-12 -12,0 z m 24,36 0,12 12,0 0,-12 -12,0 z m -144,48 0,-12 -12,0 0,-12 -12,0 -12,0 0,12 12,0 0,12 12,0 12,0 z m -36,-24 0,-12 -12,0 0,12 12,0 z m 0,-12 12,0 0,-12 -12,0 0,12 z m 12,-12 12,0 0,-12 -12,0 0,12 z m 0,-12 0,-12 -12,0 0,12 12,0 z m 12,12 0,12 12,0 0,-12 -12,0 z m -12,120 12,0 0,-12 -12,0 0,12 z m 12,-12 12,0 0,-12 -12,0 0,12 z m 0,-12 0,-12 -12,0 0,12 12,0 z m 12,0 12,0 12,0 0,-12 -12,0 0,-12 -12,0 0,12 0,12 z m 24,0 0,12 12,0 0,-12 -12,0 z m 12,12 0,12 12,0 0,-12 -12,0 z m 0,12 -12,0 0,12 -12,0 0,12 0,12 -12,0 0,12 0,12 12,0 0,-12 12,0 0,-12 12,0 0,12 0,12 -12,0 -12,0 0,12 0,12 -12,0 0,12 -12,0 0,12 12,0 0,12 12,0 0,12 12,0 12,0 12,0 0,-12 -12,0 0,-12 -12,0 -12,0 0,-12 12,0 0,-12 12,0 0,-12 12,0 0,-12 0,-12 0,-12 0,-12 0,-12 -12,0 0,-12 z m 12,120 12,0 0,-12 0,-12 0,-12 -12,0 0,12 0,12 0,12 z m -48,0 -12,0 0,12 0,12 12,0 0,-12 0,-12 z m -12,0 0,-12 -12,0 0,12 12,0 z m 0,-24 0,-12 12,0 0,-12 -12,0 0,-12 -12,0 0,-12 -12,0 0,12 0,12 0,12 12,0 0,12 12,0 z m 12,-60 0,-12 0,-12 0,-12 -12,0 0,12 -12,0 0,12 12,0 0,12 12,0 z m -132,12 0,-12 12,0 12,0 0,-12 -12,0 -12,0 -12,0 0,12 -12,0 0,12 12,0 12,0 z m -24,-12 0,-12 12,0 0,-12 -12,0 -12,0 0,12 0,12 12,0 z m -12,-24 0,-12 12,0 0,-12 -12,0 0,-12 0,-12 -12,0 0,12 -12,0 -12,0 0,12 12,0 12,0 0,12 -12,0 -12,0 0,12 12,0 12,0 12,0 z m -36,-12 0,-12 -12,0 0,12 12,0 z m -12,0 -12,0 0,12 12,0 0,-12 z m 0,-12 0,-12 -12,0 0,12 12,0 z m 0,-12 12,0 0,-12 0,-12 -12,0 0,12 0,12 z m -36,12 -12,0 -12,0 0,12 12,0 12,0 0,-12 z m 48,48 0,-12 -12,0 0,12 12,0 z m 228,132 0,-12 0,-12 -12,0 0,12 0,12 12,0 z m 48,-108 12,0 12,0 0,-12 12,0 0,-12 0,-12 0,-12 -12,0 0,12 -12,0 0,12 0,12 -12,0 0,12 z m 0,-12 0,-12 0,-12 -12,0 0,12 0,12 12,0 z m 96,-156 12,0 0,-12 -12,0 0,12 z m -192,-120 12,0 0,-12 0,-12 -12,0 0,12 0,12 z m -108,-36 0,12 12,0 0,-12 -12,0 z m 12,12 0,12 12,0 0,-12 -12,0 z m -12,0 -12,0 0,12 12,0 0,-12 z m 156,-72 0,12 12,0 0,-12 -12,0 z m 96,0 0,12 0,12 0,12 0,12 0,12 0,12 0,12 12,0 12,0 12,0 12,0 12,0 12,0 12,0 0,-12 0,-12 0,-12 0,-12 0,-12 0,-12 0,-12 -12,0 -12,0 -12,0 -12,0 -12,0 -12,0 -12,0 z m -444,12 12,0 12,0 12,0 12,0 12,0 0,12 0,12 0,12 0,12 0,12 -12,0 -12,0 -12,0 -12,0 -12,0 0,-12 0,-12 0,-12 0,-12 0,-12 z m 456,0 12,0 12,0 12,0 12,0 12,0 0,12 0,12 0,12 0,12 0,12 -12,0 -12,0 -12,0 -12,0 -12,0 0,-12 0,-12 0,-12 0,-12 0,-12 z m -444,12 0,12 0,12 0,12 12,0 12,0 12,0 0,-12 0,-12 0,-12 -12,0 -12,0 -12,0 z m 456,0 0,12 0,12 0,12 12,0 12,0 12,0 0,-12 0,-12 0,-12 -12,0 -12,0 -12,0 z m -228,36 12,0 12,0 12,0 0,12 0,12 0,12 -12,0 -12,0 -12,0 0,-12 0,-12 0,-12 z m 12,12 0,12 12,0 0,-12 -12,0 z m -264,24 0,12 0,12 0,12 12,0 0,-12 12,0 0,12 12,0 12,0 12,0 0,-12 0,-12 -12,0 -12,0 -12,0 -12,0 0,-12 -12,0 z m 72,0 0,12 12,0 0,-12 -12,0 z m -60,48 0,12 12,0 0,12 12,0 0,-12 0,-12 -12,0 -12,0 z m 0,12 -12,0 0,12 12,0 0,-12 z m 204,-12 0,12 12,0 0,-12 -12,0 z m -120,84 12,0 0,12 -12,0 0,-12 z m -36,24 12,0 12,0 12,0 0,12 0,12 0,12 -12,0 -12,0 -12,0 0,-12 0,-12 0,-12 z m 192,0 12,0 12,0 12,0 0,12 0,12 0,12 -12,0 -12,0 -12,0 0,-12 0,-12 0,-12 z m 192,0 12,0 12,0 12,0 0,12 0,12 0,12 -12,0 -12,0 -12,0 0,-12 0,-12 0,-12 z m -372,12 0,12 12,0 0,-12 -12,0 z m 192,0 0,12 12,0 0,-12 -12,0 z m 192,0 0,12 12,0 0,-12 -12,0 z m -336,120 12,0 0,12 12,0 0,12 -12,0 0,-12 -12,0 0,-12 z m 156,12 0,12 12,0 0,-12 -12,0 z m -204,36 0,12 12,0 12,0 0,12 12,0 0,-12 0,-12 -12,0 -12,0 -12,0 z m 180,12 12,0 12,0 12,0 0,12 0,12 0,12 -12,0 -12,0 -12,0 0,-12 0,-12 0,-12 z m 192,0 12,0 12,0 12,0 0,12 0,12 0,12 -12,0 -12,0 -12,0 0,-12 0,-12 0,-12 z m -444,12 0,12 0,12 0,12 0,12 0,12 0,12 0,12 12,0 12,0 12,0 12,0 12,0 12,0 12,0 0,-12 0,-12 0,-12 0,-12 0,-12 0,-12 0,-12 -12,0 -12,0 -12,0 -12,0 -12,0 -12,0 -12,0 z m 264,0 0,12 12,0 0,-12 -12,0 z m 192,0 0,12 12,0 0,-12 -12,0 z m -444,12 12,0 12,0 12,0 12,0 12,0 0,12 0,12 0,12 0,12 0,12 -12,0 -12,0 -12,0 -12,0 -12,0 0,-12 0,-12 0,-12 0,-12 0,-12 z m 156,0 0,12 0,12 0,12 12,0 0,12 12,0 0,12 12,0 0,-12 0,-12 0,-12 -12,0 0,-12 -12,0 0,-12 -12,0 z m 24,12 12,0 0,-12 -12,0 0,12 z m -12,36 -12,0 0,-12 -12,0 -12,0 -12,0 0,12 0,12 0,12 12,0 0,-12 12,0 0,12 12,0 0,-12 12,0 0,-12 z m -156,-36 0,12 0,12 0,12 12,0 12,0 12,0 0,-12 0,-12 0,-12 -12,0 -12,0 -12,0 z m 84,24 0,12 12,0 0,-12 -12,0 z m -12,24 0,12 12,0 12,0 0,-12 -12,0 -12,0 z" id="qrcode1" style="fill:#000000;stroke:none"/>
  <path d="m 688,256 0,64 64,0 0,-64 -64,0 z m 96,80 0,112 112,0 0,-112 -112,0 z m 16,128 0,80 80,0 0,-80 -80,0 z m 32,96 0,80 16,0 0,-80 -16,0 z" id="rect3011" style="fill:#ffffff;fill-opacity:1;stroke:none"/>
  <path d="m 704,256 0,16 16,0 0,-16 -16,0 z m 16,16 0,16 16,0 0,-16 -16,0 z m 16,0 16,0 0,-16 -16,0 0,16 z m 0,16 0,16 16,0 0,-16 -16,0 z m 0,16 -16,0 0,16 16,0 0,-16 z m -16,0 0,-16 -16,0 0,16 16,0 z m -16,0 -16,0 0,16 16,0 0,-16 z m 0,-16 0,-16 -16,0 0,16 16,0 z m 80,48 0,112 112,0 0,-112 -112,0 z m 16,16 80,0 0,80 -80,0 0,-80 z m 16,16 0,48 48,0 0,-48 -48,0 z m -16,96 0,80 80,0 0,-80 -80,0 z m 16,16 48,0 0,48 -48,0 0,-48 z m 16,16 0,16 16,0 0,-16 -16,0 z m 0,64 0,16 16,0 0,-16 -16,0 z m 0,32 0,16 16,0 0,-16 -16,0 z m 0,32 0,16 16,0 0,-16 -16,0 z" id="path13" style="fill-rule:evenodd"/>
  <svg:switch style="font-size:32px;font-style:normal;font-variant:normal;font-weight:normal;font-stretch:normal;line-height:125%;letter-spacing:0px;word-spacing:0px;fill:#000000;fill-opacity:1;stroke:none;font-family:DejaVu Sans;-inkscape-font-specification:DejaVu Sans"><svg:text x="768" y="60" id="text5665-id" xml:space="preserve" style="font-size:32px;font-style:normal;font-variant:normal;font-weight:normal;font-stretch:normal;line-height:125%;letter-spacing:0px;word-spacing:0px;fill:#000000;fill-opacity:1;stroke:none;font-family:DejaVu Sans;-inkscape-font-specification:DejaVu Sans" systemLanguage="id"><svg:tspan x="768" y="60" id="tspan5667-id">1. Informasi versi</svg:tspan></svg:text><svg:text x="768" y="60" id="text5665-ja" xml:space="preserve" style="font-size:32px;font-style:normal;font-variant:normal;font-weight:normal;font-stretch:normal;line-height:125%;letter-spacing:0px;word-spacing:0px;fill:#000000;fill-opacity:1;stroke:none;font-family:DejaVu Sans;-inkscape-font-specification:DejaVu Sans" systemLanguage="ja"><svg:tspan x="768" y="60" id="tspan5667-ja">1. バージョン情報</svg:tspan></svg:text><svg:text x="768" y="60" id="text5665-it" xml:space="preserve" style="font-size:32px;font-style:normal;font-variant:normal;font-weight:normal;font-stretch:normal;line-height:125%;letter-spacing:0px;word-spacing:0px;fill:#000000;fill-opacity:1;stroke:none;font-family:DejaVu Sans;-inkscape-font-specification:DejaVu Sans" systemLanguage="it"><svg:tspan x="768" y="60" id="tspan5667-it">1. Informazioni versione</svg:tspan></svg:text><svg:text x="768" y="60" id="text5665" xml:space="preserve" style="font-size:32px;font-style:normal;font-variant:normal;font-weight:normal;font-stretch:normal;line-height:125%;letter-spacing:0px;word-spacing:0px;fill:#000000;fill-opacity:1;stroke:none;font-family:DejaVu Sans;-inkscape-font-specification:DejaVu Sans"><svg:tspan x="768" y="60" id="tspan5667">1. Version information</svg:tspan></svg:text></svg:switch>
  <svg:switch style="font-size:32px;font-style:normal;font-variant:normal;font-weight:normal;font-stretch:normal;line-height:125%;letter-spacing:0px;word-spacing:0px;fill:#000000;fill-opacity:1;stroke:none;overflow:visible;font-family:DejaVu Sans;-inkscape-font-specification:DejaVu Sans"><svg:text x="768" y="140" id="text5665-5-id" xml:space="preserve" style="font-size:32px;font-style:normal;font-variant:normal;font-weight:normal;font-stretch:normal;line-height:125%;letter-spacing:0px;word-spacing:0px;fill:#000000;fill-opacity:1;stroke:none;overflow:visible;font-family:DejaVu Sans;-inkscape-font-specification:DejaVu Sans" systemLanguage="id"><svg:tspan x="768" y="140" id="tspan5667-6-id">2. Informasi format</svg:tspan></svg:text><svg:text x="768" y="140" id="text5665-5-ja" xml:space="preserve" style="font-size:32px;font-style:normal;font-variant:normal;font-weight:normal;font-stretch:normal;line-height:125%;letter-spacing:0px;word-spacing:0px;fill:#000000;fill-opacity:1;stroke:none;overflow:visible;font-family:DejaVu Sans;-inkscape-font-specification:DejaVu Sans" systemLanguage="ja"><svg:tspan x="768" y="140" id="tspan5667-6-ja">2. フォーマット情報</svg:tspan></svg:text><svg:text x="768" y="140" id="text5665-5-it" xml:space="preserve" style="font-size:32px;font-style:normal;font-variant:normal;font-weight:normal;font-stretch:normal;line-height:125%;letter-spacing:0px;word-spacing:0px;fill:#000000;fill-opacity:1;stroke:none;overflow:visible;font-family:DejaVu Sans;-inkscape-font-specification:DejaVu Sans" systemLanguage="it"><svg:tspan x="768" y="140" id="tspan5667-6-it">2. Informazioni formato</svg:tspan></svg:text><svg:text x="768" y="140" id="text5665-5" xml:space="preserve" style="font-size:32px;font-style:normal;font-variant:normal;font-weight:normal;font-stretch:normal;line-height:125%;letter-spacing:0px;word-spacing:0px;fill:#000000;fill-opacity:1;stroke:none;overflow:visible;font-family:DejaVu Sans;-inkscape-font-specification:DejaVu Sans"><svg:tspan x="768" y="140" id="tspan5667-6">2. Format information</svg:tspan></svg:text></svg:switch>
  <svg:switch style="font-size:32px;font-style:normal;font-variant:normal;font-weight:normal;font-stretch:normal;line-height:125%;letter-spacing:0px;word-spacing:0px;fill:#000000;fill-opacity:1;stroke:none;overflow:visible;font-family:DejaVu Sans;-inkscape-font-specification:DejaVu Sans"><svg:text x="768" y="220" id="text5665-5-1-id" xml:space="preserve" style="font-size:32px;font-style:normal;font-variant:normal;font-weight:normal;font-stretch:normal;line-height:125%;letter-spacing:0px;word-spacing:0px;fill:#000000;fill-opacity:1;stroke:none;overflow:visible;font-family:DejaVu Sans;-inkscape-font-specification:DejaVu Sans" systemLanguage="id"><svg:tspan x="768" y="220" id="tspan5667-6-6-id">3. Data dan kunci koreksi kesalahan</svg:tspan></svg:text><svg:text x="768" y="220" id="text5665-5-1-ja" xml:space="preserve" style="font-size:32px;font-style:normal;font-variant:normal;font-weight:normal;font-stretch:normal;line-height:125%;letter-spacing:0px;word-spacing:0px;fill:#000000;fill-opacity:1;stroke:none;overflow:visible;font-family:DejaVu Sans;-inkscape-font-specification:DejaVu Sans" systemLanguage="ja"><svg:tspan x="768" y="220" id="tspan5667-6-6-ja">3. データと誤り訂正符号</svg:tspan></svg:text><svg:text x="768" y="220" id="text5665-5-1-it" xml:space="preserve" style="font-size:32px;font-style:normal;font-variant:normal;font-weight:normal;font-stretch:normal;line-height:125%;letter-spacing:0px;word-spacing:0px;fill:#000000;fill-opacity:1;stroke:none;overflow:visible;font-family:DejaVu Sans;-inkscape-font-specification:DejaVu Sans" systemLanguage="it"><svg:tspan x="768" y="220" id="tspan5667-6-6-it">3. Area dati e correzione errori</svg:tspan></svg:text><svg:text x="768" y="220" id="text5665-5-1" xml:space="preserve" style="font-size:32px;font-style:normal;font-variant:normal;font-weight:normal;font-stretch:normal;line-height:125%;letter-spacing:0px;word-spacing:0px;fill:#000000;fill-opacity:1;stroke:none;overflow:visible;font-family:DejaVu Sans;-inkscape-font-specification:DejaVu Sans"><svg:tspan x="768" y="220" id="tspan5667-6-6">3. Data and error correction keys</svg:tspan></svg:text></svg:switch>
  <svg:switch style="font-size:32px;font-style:normal;font-variant:normal;font-weight:normal;font-stretch:normal;line-height:125%;letter-spacing:0px;word-spacing:0px;fill:#000000;fill-opacity:1;stroke:none;overflow:visible;font-family:DejaVu Sans;-inkscape-font-specification:DejaVu Sans"><svg:text x="768" y="300" id="text5665-5-15-id" xml:space="preserve" style="font-size:32px;font-style:normal;font-variant:normal;font-weight:normal;font-stretch:normal;line-height:125%;letter-spacing:0px;word-spacing:0px;fill:#000000;fill-opacity:1;stroke:none;overflow:visible;font-family:DejaVu Sans;-inkscape-font-specification:DejaVu Sans" systemLanguage="id"><svg:tspan x="768" y="300" id="tspan5667-6-61-id">4. Pola yang dibutuhkan</svg:tspan></svg:text><svg:text x="768" y="300" id="text5665-5-15-ja" xml:space="preserve" style="font-size:32px;font-style:normal;font-variant:normal;font-weight:normal;font-stretch:normal;line-height:125%;letter-spacing:0px;word-spacing:0px;fill:#000000;fill-opacity:1;stroke:none;overflow:visible;font-family:DejaVu Sans;-inkscape-font-specification:DejaVu Sans" systemLanguage="ja"><svg:tspan x="768" y="300" id="tspan5667-6-61-ja">4. 必須パターン</svg:tspan></svg:text><svg:text x="768" y="300" id="text5665-5-15-it" xml:space="preserve" style="font-size:32px;font-style:normal;font-variant:normal;font-weight:normal;font-stretch:normal;line-height:125%;letter-spacing:0px;word-spacing:0px;fill:#000000;fill-opacity:1;stroke:none;overflow:visible;font-family:DejaVu Sans;-inkscape-font-specification:DejaVu Sans" systemLanguage="it"><svg:tspan x="768" y="300" id="tspan5667-6-61-it">4. Matrice a quadri</svg:tspan></svg:text><svg:text x="768" y="300" id="text5665-5-15" xml:space="preserve" style="font-size:32px;font-style:normal;font-variant:normal;font-weight:normal;font-stretch:normal;line-height:125%;letter-spacing:0px;word-spacing:0px;fill:#000000;fill-opacity:1;stroke:none;overflow:visible;font-family:DejaVu Sans;-inkscape-font-specification:DejaVu Sans"><svg:tspan x="768" y="300" id="tspan5667-6-61">4. Required patterns</svg:tspan></svg:text></svg:switch>
  <svg:switch style="font-size:32px;font-style:normal;font-variant:normal;font-weight:normal;font-stretch:normal;line-height:125%;letter-spacing:0px;word-spacing:0px;fill:#000000;fill-opacity:1;stroke:none;overflow:visible;font-family:DejaVu Sans;-inkscape-font-specification:DejaVu Sans"><svg:text x="912" y="396" id="text5665-5-15-2-id" xml:space="preserve" style="font-size:32px;font-style:normal;font-variant:normal;font-weight:normal;font-stretch:normal;line-height:125%;letter-spacing:0px;word-spacing:0px;fill:#000000;fill-opacity:1;stroke:none;overflow:visible;font-family:DejaVu Sans;-inkscape-font-specification:DejaVu Sans" systemLanguage="id"><svg:tspan x="912" y="396" id="tspan5667-6-61-1-id">4.1. Posisi</svg:tspan></svg:text><svg:text x="912" y="396" id="text5665-5-15-2-ja" xml:space="preserve" style="font-size:32px;font-style:normal;font-variant:normal;font-weight:normal;font-stretch:normal;line-height:125%;letter-spacing:0px;word-spacing:0px;fill:#000000;fill-opacity:1;stroke:none;overflow:visible;font-family:DejaVu Sans;-inkscape-font-specification:DejaVu Sans" systemLanguage="ja"><svg:tspan x="912" y="396" id="tspan5667-6-61-1-ja">4.1. ファインダ</svg:tspan></svg:text><svg:text x="912" y="396" id="text5665-5-15-2-it" xml:space="preserve" style="font-size:32px;font-style:normal;font-variant:normal;font-weight:normal;font-stretch:normal;line-height:125%;letter-spacing:0px;word-spacing:0px;fill:#000000;fill-opacity:1;stroke:none;overflow:visible;font-family:DejaVu Sans;-inkscape-font-specification:DejaVu Sans" systemLanguage="it"><svg:tspan x="912" y="396" id="tspan5667-6-61-1-it">4.1. Posizione</svg:tspan></svg:text><svg:text x="912" y="396" id="text5665-5-15-2" xml:space="preserve" style="font-size:32px;font-style:normal;font-variant:normal;font-weight:normal;font-stretch:normal;line-height:125%;letter-spacing:0px;word-spacing:0px;fill:#000000;fill-opacity:1;stroke:none;overflow:visible;font-family:DejaVu Sans;-inkscape-font-specification:DejaVu Sans"><svg:tspan x="912" y="396" id="tspan5667-6-61-1">4.1. Position</svg:tspan></svg:text></svg:switch>
  <svg:switch style="font-size:32px;font-style:normal;font-variant:normal;font-weight:normal;font-stretch:normal;line-height:125%;letter-spacing:0px;word-spacing:0px;fill:#000000;fill-opacity:1;stroke:none;overflow:visible;font-family:DejaVu Sans;-inkscape-font-specification:DejaVu Sans"><svg:text x="912" y="508" id="text5665-5-15-2-0-id" xml:space="preserve" style="font-size:32px;font-style:normal;font-variant:normal;font-weight:normal;font-stretch:normal;line-height:125%;letter-spacing:0px;word-spacing:0px;fill:#000000;fill-opacity:1;stroke:none;overflow:visible;font-family:DejaVu Sans;-inkscape-font-specification:DejaVu Sans" systemLanguage="id"><svg:tspan x="912" y="508" id="tspan5667-6-61-1-5-id">4.2. Penjajaran</svg:tspan></svg:text><svg:text x="912" y="508" id="text5665-5-15-2-0-ja" xml:space="preserve" style="font-size:32px;font-style:normal;font-variant:normal;font-weight:normal;font-stretch:normal;line-height:125%;letter-spacing:0px;word-spacing:0px;fill:#000000;fill-opacity:1;stroke:none;overflow:visible;font-family:DejaVu Sans;-inkscape-font-specification:DejaVu Sans" systemLanguage="ja"><svg:tspan x="912" y="508" id="tspan5667-6-61-1-5-ja">4.2. アライメント</svg:tspan></svg:text><svg:text x="912" y="508" id="text5665-5-15-2-0-it" xml:space="preserve" style="font-size:32px;font-style:normal;font-variant:normal;font-weight:normal;font-stretch:normal;line-height:125%;letter-spacing:0px;word-spacing:0px;fill:#000000;fill-opacity:1;stroke:none;overflow:visible;font-family:DejaVu Sans;-inkscape-font-specification:DejaVu Sans" systemLanguage="it"><svg:tspan x="912" y="508" id="tspan5667-6-61-1-5-it">4.2. Allineamento</svg:tspan></svg:text><svg:text x="912" y="508" id="text5665-5-15-2-0" xml:space="preserve" style="font-size:32px;font-style:normal;font-variant:normal;font-weight:normal;font-stretch:normal;line-height:125%;letter-spacing:0px;word-spacing:0px;fill:#000000;fill-opacity:1;stroke:none;overflow:visible;font-family:DejaVu Sans;-inkscape-font-specification:DejaVu Sans"><svg:tspan x="912" y="508" id="tspan5667-6-61-1-5">4.2. Alignment</svg:tspan></svg:text></svg:switch>
  <svg:switch style="font-size:32px;font-style:normal;font-variant:normal;font-weight:normal;font-stretch:normal;line-height:125%;letter-spacing:0px;word-spacing:0px;fill:#000000;fill-opacity:1;stroke:none;overflow:visible;font-family:DejaVu Sans;-inkscape-font-specification:DejaVu Sans"><svg:text x="912" y="604" id="text5665-5-15-2-8-id" xml:space="preserve" style="font-size:32px;font-style:normal;font-variant:normal;font-weight:normal;font-stretch:normal;line-height:125%;letter-spacing:0px;word-spacing:0px;fill:#000000;fill-opacity:1;stroke:none;overflow:visible;font-family:DejaVu Sans;-inkscape-font-specification:DejaVu Sans" systemLanguage="id"><svg:tspan x="912" y="604" id="tspan5667-6-61-1-7-id">4.3. Pengaturan waktu</svg:tspan></svg:text><svg:text x="912" y="604" id="text5665-5-15-2-8-ja" xml:space="preserve" style="font-size:32px;font-style:normal;font-variant:normal;font-weight:normal;font-stretch:normal;line-height:125%;letter-spacing:0px;word-spacing:0px;fill:#000000;fill-opacity:1;stroke:none;overflow:visible;font-family:DejaVu Sans;-inkscape-font-specification:DejaVu Sans" systemLanguage="ja"><svg:tspan x="912" y="604" id="tspan5667-6-61-1-7-ja">4.3. タイミング</svg:tspan></svg:text><svg:text x="912" y="604" id="text5665-5-15-2-8-it" xml:space="preserve" style="font-size:32px;font-style:normal;font-variant:normal;font-weight:normal;font-stretch:normal;line-height:125%;letter-spacing:0px;word-spacing:0px;fill:#000000;fill-opacity:1;stroke:none;overflow:visible;font-family:DejaVu Sans;-inkscape-font-specification:DejaVu Sans" systemLanguage="it"><svg:tspan x="912" y="604" id="tspan5667-6-61-1-7-it">4.3. Temporizzazione</svg:tspan></svg:text><svg:text x="912" y="604" id="text5665-5-15-2-8" xml:space="preserve" style="font-size:32px;font-style:normal;font-variant:normal;font-weight:normal;font-stretch:normal;line-height:125%;letter-spacing:0px;word-spacing:0px;fill:#000000;fill-opacity:1;stroke:none;overflow:visible;font-family:DejaVu Sans;-inkscape-font-specification:DejaVu Sans"><svg:tspan x="912" y="604" id="tspan5667-6-61-1-7">4.3. Timing</svg:tspan></svg:text></svg:switch>
  <svg:switch style="font-size:32px;font-style:normal;font-variant:normal;font-weight:normal;font-stretch:normal;line-height:125%;letter-spacing:0px;word-spacing:0px;fill:#000000;fill-opacity:1;stroke:none;overflow:visible;font-family:DejaVu Sans;-inkscape-font-specification:DejaVu Sans"><svg:text x="768" y="700" id="text5665-5-0-id" xml:space="preserve" style="font-size:32px;font-style:normal;font-variant:normal;font-weight:normal;font-stretch:normal;line-height:125%;letter-spacing:0px;word-spacing:0px;fill:#000000;fill-opacity:1;stroke:none;overflow:visible;font-family:DejaVu Sans;-inkscape-font-specification:DejaVu Sans" systemLanguage="id"><svg:tspan x="768" y="700" id="tspan5667-6-4-id">5. Zona tenang</svg:tspan></svg:text><svg:text x="768" y="700" id="text5665-5-0-ja" xml:space="preserve" style="font-size:32px;font-style:normal;font-variant:normal;font-weight:normal;font-stretch:normal;line-height:125%;letter-spacing:0px;word-spacing:0px;fill:#000000;fill-opacity:1;stroke:none;overflow:visible;font-family:DejaVu Sans;-inkscape-font-specification:DejaVu Sans" systemLanguage="ja"><svg:tspan x="768" y="700" id="tspan5667-6-4-ja">5. クワイエットゾーン</svg:tspan></svg:text><svg:text x="768" y="700" id="text5665-5-0-it" xml:space="preserve" style="font-size:32px;font-style:normal;font-variant:normal;font-weight:normal;font-stretch:normal;line-height:125%;letter-spacing:0px;word-spacing:0px;fill:#000000;fill-opacity:1;stroke:none;overflow:visible;font-family:DejaVu Sans;-inkscape-font-specification:DejaVu Sans" systemLanguage="it"><svg:tspan x="768" y="700" id="tspan5667-6-4-it">5. Zona di rispetto</svg:tspan></svg:text><svg:text x="768" y="700" id="text5665-5-0" xml:space="preserve" style="font-size:32px;font-style:normal;font-variant:normal;font-weight:normal;font-stretch:normal;line-height:125%;letter-spacing:0px;word-spacing:0px;fill:#000000;fill-opacity:1;stroke:none;overflow:visible;font-family:DejaVu Sans;-inkscape-font-specification:DejaVu Sans"><svg:tspan x="768" y="700" id="tspan5667-6-4">5. Quiet zone</svg:tspan></svg:text></svg:switch>
  <path d="m 480,100 0,72 36,0 0,-72 -36,0 z m -408,408 0,36 72,0 0,-36 -72,0 z" id="rect3014" style="opacity:0.75;fill:#4242ff;fill-opacity:1;stroke:none"/>
  <path d="m 168,100 0,72 12,0 0,-72 -12,0 z m 0,84 0,12 -12,0 0,12 24,0 0,-12 0,-12 -12,0 z m -96,12 0,12 72,0 0,-12 -72,0 z m 444,0 0,12 96,0 0,-12 -96,0 z m -348,360 0,84 12,0 0,-84 -12,0 z" id="rect3786" style="opacity:0.75;fill:#ff4242;fill-opacity:1;stroke:none"/>
  <path d="m 180,100 0,72 132,0 0,-24 60,0 0,24 108,0 0,-72 -300,0 z m 0,84 0,12 0,12 -24,0 0,132 24,0 0,60 -24,0 0,144 24,0 0,96 432,0 0,-432 -96,0 0,-24 -144,0 0,24 -60,0 0,-24 -132,0 z m -108,24 0,300 72,0 0,-108 -24,0 0,-60 24,0 0,-132 -72,0 z m 240,132 60,0 0,60 -60,0 0,-60 z m 192,0 60,0 0,60 -60,0 0,-60 z m -192,192 60,0 0,60 -60,0 0,-60 z m 192,0 60,0 0,60 -60,0 0,-60 z" id="rect3776" style="opacity:0.75;fill:#a1a1a1;fill-opacity:1;stroke:none"/>
  <path d="m 688,80 64,0 0,-64 -64,0 z" id="path271" style="fill:#7171ff;fill-opacity:1;fill-rule:evenodd"/>
  <path d="m 688,96 64,0 0,64 -64,0 z" id="path275" style="fill:#ff7171;fill-opacity:1;fill-rule:evenodd"/>
  <path d="m 688,176 64,0 0,64 -64,0 z" id="path273" style="fill:#b8b8b8;fill-opacity:1;fill-rule:evenodd"/>
  <path d="m 688,656 64,0 0,64 -64,0 z" id="rect5661" style="fill:#71ff71;fill-opacity:1;fill-rule:evenodd;stroke:none"/>
</svg>
