<svg width="32" height="32" viewBox="0 0 32 32" fill="none" xmlns="http://www.w3.org/2000/svg">
<path fill-rule="evenodd" clip-rule="evenodd" d="M16.564 5.278C16.178 4.576 15.516 4.5 15.25 4.5C14.9807 4.49689 14.7158 4.5678 14.4841 4.705C14.2523 4.84219 14.0628 5.04041 13.936 5.278L2.94201 25.278C2.81382 25.5056 2.74849 25.7631 2.7527 26.0243C2.75692 26.2854 2.83054 26.5407 2.96601 26.764C3.09633 26.9902 3.28451 27.1775 3.51123 27.3069C3.73794 27.4362 3.99501 27.5029 4.25601 27.5H26.244C26.505 27.5029 26.7621 27.4362 26.9888 27.3069C27.2155 27.1775 27.4037 26.9902 27.534 26.764C27.6695 26.5407 27.7431 26.2854 27.7473 26.0243C27.7515 25.7631 27.6862 25.5056 27.558 25.278L16.564 5.278ZM11.746 4.074C12.504 2.692 13.878 2 15.25 2C15.9672 1.99591 16.672 2.18646 17.2894 2.55134C17.9069 2.91623 18.4137 3.44178 18.756 4.072L29.75 24.072C31.216 26.738 29.288 30 26.246 30H4.25601C1.21401 30 -0.715988 26.74 0.752012 24.074L11.746 4.074ZM16.5 18.124C16.5 18.4555 16.3683 18.7735 16.1339 19.0079C15.8995 19.2423 15.5815 19.374 15.25 19.374C14.9185 19.374 14.6005 19.2423 14.3661 19.0079C14.1317 18.7735 14 18.4555 14 18.124V11.25C14 10.9185 14.1317 10.6005 14.3661 10.3661C14.6005 10.1317 14.9185 10 15.25 10C15.5815 10 15.8995 10.1317 16.1339 10.3661C16.3683 10.6005 16.5 10.9185 16.5 11.25V18.124ZM14.5 24L14 23.5V22L14.5 21.5H16L16.5 22V23.5L16 24H14.5Z" fill="black"/>
</svg>
