<?xml version="1.0" encoding="UTF-8" standalone="no"?>
<!-- Created with Inkscape (http://www.inkscape.org/) -->

<svg
   xmlns:svg="http://www.w3.org/2000/svg"
   xmlns="http://www.w3.org/2000/svg"
   xmlns:xlink="http://www.w3.org/1999/xlink"
   version="1.0"
   width="530"
   height="380"
   id="svg3383">
  <defs
     id="defs3386">
    <linearGradient
       id="linearGradient3921">
      <stop
         id="stop3923"
         style="stop-color:#7c0000;stop-opacity:1"
         offset="0" />
      <stop
         id="stop3925"
         style="stop-color:#ff0000;stop-opacity:1"
         offset="1" />
    </linearGradient>
    <linearGradient
       id="linearGradient3913">
      <stop
         id="stop3915"
         style="stop-color:#004500;stop-opacity:1"
         offset="0" />
      <stop
         id="stop3917"
         style="stop-color:#00c800;stop-opacity:1"
         offset="1" />
    </linearGradient>
    <linearGradient
       x1="172.9136"
       y1="196.78102"
       x2="255.58641"
       y2="209.78102"
       id="linearGradient3919"
       xlink:href="#linearGradient3913"
       gradientUnits="userSpaceOnUse"
       gradientTransform="translate(65.3526,-21.2149)" />
    <linearGradient
       x1="171.82907"
       y1="160.59293"
       x2="263.96692"
       y2="171.97771"
       id="linearGradient3927"
       xlink:href="#linearGradient3921"
       gradientUnits="userSpaceOnUse"
       gradientTransform="matrix(0.987421,0,0,1.05714,68.4533,-28.7498)" />
  </defs>
  <path
     d="m 519,193.86218 a 110,112.5 0 1 1 -220,0 110,112.5 0 1 1 220,0 z"
     transform="matrix(0.701471,0,0,1.00144,61.4508,-15.4938)"
     id="path3949"
     style="fill:none;stroke:#dc0000;stroke-width:2;stroke-linecap:round;stroke-linejoin:round;stroke-miterlimit:4;stroke-opacity:1;stroke-dasharray:none;stroke-dashoffset:0" />
  <path
     d="m 519,193.86218 a 110,112.5 0 1 1 -220,0 110,112.5 0 1 1 220,0 z"
     transform="matrix(0.701471,0,0,1.00144,-92.5492,-10.9938)"
     id="path3957"
     style="fill:none;stroke:#dc0000;stroke-width:2;stroke-linecap:round;stroke-linejoin:round;stroke-miterlimit:4;stroke-opacity:1;stroke-dasharray:none;stroke-dashoffset:0" />
  <path
     d="m 519,193.86218 a 110,112.5 0 1 1 -220,0 110,112.5 0 1 1 220,0 z"
     transform="matrix(0.890002,0,0,1.35911,-190.658,-85.8332)"
     id="path3959"
     style="fill:none;stroke:#dc0000;stroke-width:1.81847;stroke-linecap:round;stroke-linejoin:round;stroke-miterlimit:4;stroke-opacity:1;stroke-dasharray:none;stroke-dashoffset:0" />
  <path
     d="m 519,193.86218 a 110,112.5 0 1 1 -220,0 110,112.5 0 1 1 220,0 z"
     transform="matrix(0.853779,0,0,1.37703,15.1569,-92.3064)"
     id="path3961"
     style="fill:none;stroke:#dc0000;stroke-width:1.84452999;stroke-linecap:round;stroke-linejoin:round;stroke-miterlimit:4;stroke-opacity:1;stroke-dasharray:none;stroke-dashoffset:0" />
  <path
     d="m 519,193.86218 a 110,112.5 0 1 1 -220,0 110,112.5 0 1 1 220,0 z"
     transform="matrix(1.06928,0,0,1.77885,-49.983,-171.705)"
     id="path3963"
     style="fill:none;stroke:#dc0000;stroke-width:1.45015001;stroke-linecap:round;stroke-linejoin:round;stroke-miterlimit:4;stroke-opacity:1;stroke-dasharray:none;stroke-dashoffset:0" />
  <path
     d="m 519,193.86218 a 110,112.5 0 1 1 -220,0 110,112.5 0 1 1 220,0 z"
     transform="matrix(1.06928,0,0,1.77885,-283.983,-167.705)"
     id="path3965"
     style="fill:none;stroke:#dc0000;stroke-width:1.45015001;stroke-linecap:round;stroke-linejoin:round;stroke-miterlimit:4;stroke-opacity:1;stroke-dasharray:none;stroke-dashoffset:0" />
  <path
     d="m 519,193.86218 a 110,112.5 0 1 1 -220,0 110,112.5 0 1 1 220,0 z"
     transform="matrix(1.42407,0,0,2.4102,-467.591,-286.599)"
     id="path3967"
     style="fill:none;stroke:#dc0000;stroke-width:1.07954001;stroke-linecap:round;stroke-linejoin:round;stroke-miterlimit:4;stroke-opacity:1;stroke-dasharray:none;stroke-dashoffset:0" />
  <path
     d="m 519,193.86218 a 110,112.5 0 1 1 -220,0 110,112.5 0 1 1 220,0 z"
     transform="matrix(1.42407,0,0,2.4102,-159.091,-296.099)"
     id="path3969"
     style="fill:none;stroke:#dc0000;stroke-width:1.07954001;stroke-linecap:round;stroke-linejoin:round;stroke-miterlimit:4;stroke-opacity:1;stroke-dasharray:none;stroke-dashoffset:0" />
  <rect
     width="78.672813"
     height="145.0163"
     x="233.26624"
     y="110.55803"
     id="rect3392"
     style="fill:url(#linearGradient3919) #000000;fill-opacity:1;fill-rule:evenodd;stroke:#170000;stroke-width:0pt;stroke-linecap:round;stroke-linejoin:round;stroke-miterlimit:4;stroke-opacity:1;stroke-dasharray:none;stroke-dashoffset:0" />
  <rect
     width="78.5"
     height="74"
     x="233.35263"
     y="110.64734"
     id="rect3903"
     style="fill:url(#linearGradient3927);fill-opacity:1;fill-rule:evenodd;stroke:none" />
  <rect
     width="72.5"
     height="84.5"
     x="143.35263"
     y="82.647339"
     id="rect3929"
     style="fill:none;stroke:#000000;stroke-width:0pt;stroke-linecap:round;stroke-linejoin:round;stroke-miterlimit:4;stroke-opacity:1;stroke-dasharray:none;stroke-dashoffset:0" />
  <rect
     width="78.5"
     height="145.5"
     x="232.85263"
     y="110.14734"
     id="rect3933"
     style="fill:none;stroke:#000000;stroke-width:2;stroke-linecap:round;stroke-linejoin:round;stroke-miterlimit:4;stroke-opacity:1;stroke-dasharray:none;stroke-dashoffset:0" />
  <g
     transform="translate(1.5113006,1.6936839)"
     id="text3935"
     style="font-size:72px;font-style:normal;font-variant:normal;font-weight:normal;font-stretch:normal;text-align:start;line-height:100%;text-anchor:start;fill:#ffffff;fill-opacity:1;stroke:#000000;stroke-width:1px;stroke-linecap:butt;stroke-linejoin:miter;stroke-opacity:1;font-family:Calibri">
    <path
       d="m 288.28268,166.15091 c -4e-5,0.46875 -0.0762,0.86719 -0.22851,1.19531 -0.15239,0.32813 -0.3516,0.59766 -0.59766,0.8086 -0.24613,0.21093 -0.52152,0.36328 -0.82617,0.45703 -0.30473,0.0937 -0.60941,0.14062 -0.91406,0.14062 l -1.9336,0 c -0.60941,0 -1.14261,-0.0644 -1.59961,-0.19336 -0.45706,-0.1289 -0.89065,-0.36328 -1.30078,-0.70312 -0.41019,-0.33985 -0.82034,-0.80274 -1.23047,-1.38867 -0.41018,-0.58594 -0.86135,-1.33594 -1.35351,-2.25 l -14.34375,-25.875 c -0.75002,-1.33591 -1.50587,-2.7363 -2.26758,-4.20118 -0.76173,-1.4648 -1.47071,-2.88863 -2.12695,-4.27148 l -0.0703,0 c 0.0469,1.68754 0.082,3.41019 0.10546,5.16797 0.0234,1.75784 0.0351,3.50393 0.0352,5.23828 l 0,27.45703 c -10e-6,0.16406 -0.0469,0.32227 -0.14062,0.47461 -0.0938,0.15234 -0.25197,0.26953 -0.47461,0.35156 -0.22267,0.082 -0.51564,0.15235 -0.87891,0.21094 -0.36329,0.0586 -0.82618,0.0879 -1.38867,0.0879 -0.56251,0 -1.0254,-0.0293 -1.38867,-0.0879 -0.36329,-0.0586 -0.6504,-0.12891 -0.86133,-0.21094 -0.21095,-0.082 -0.36329,-0.19922 -0.45703,-0.35156 -0.0938,-0.15234 -0.14063,-0.31055 -0.14063,-0.47461 l 0,-41.97656 c 0,-0.93746 0.25781,-1.60543 0.77344,-2.00391 0.51562,-0.39839 1.07812,-0.59761 1.6875,-0.59765 l 2.88281,0 c 0.67968,4e-5 1.24804,0.0586 1.70508,0.17578 0.45702,0.11723 0.86717,0.31059 1.23047,0.58008 0.36327,0.26957 0.71483,0.64457 1.05469,1.125 0.33982,0.48051 0.70896,1.08402 1.10742,1.81054 l 11.03906,19.96875 c 0.67966,1.21877 1.33591,2.40822 1.96875,3.56836 0.63278,1.16017 1.24216,2.30275 1.82813,3.42774 0.5859,1.12501 1.16598,2.23243 1.74023,3.32226 0.57419,1.08986 1.14254,2.18556 1.70508,3.28711 l 0.0352,0 c -0.0469,-1.85155 -0.0762,-3.77928 -0.0879,-5.7832 -0.0118,-2.00389 -0.0176,-3.93163 -0.0176,-5.78321 l 0,-24.67968 c -4e-5,-0.16402 0.0468,-0.31636 0.14062,-0.45703 0.0937,-0.14058 0.25192,-0.26363 0.47461,-0.36914 0.22262,-0.10543 0.51559,-0.1816 0.87891,-0.22852 0.36324,-0.0468 0.83785,-0.0703 1.42382,-0.0703 0.51559,4e-5 0.9609,0.0235 1.33594,0.0703 0.37496,0.0469 0.66793,0.12309 0.87891,0.22852 0.2109,0.10551 0.36324,0.22856 0.45703,0.36914 0.0937,0.14067 0.14058,0.29301 0.14062,0.45703 z"
       id="path3621" />
  </g>
  <g
     transform="translate(0.50033206,0)"
     id="text3939"
     style="font-size:72px;font-style:normal;font-variant:normal;font-weight:normal;font-stretch:normal;text-align:start;line-height:100%;text-anchor:start;fill:#ffffff;fill-opacity:1;stroke:#000000;stroke-width:1px;stroke-linecap:butt;stroke-linejoin:miter;stroke-opacity:1;font-family:Calibri">
    <path
       d="m 286.09447,229.07928 c -3e-5,2.13283 -0.39261,4.03126 -1.17774,5.69532 -0.78518,1.66407 -1.87502,3.07617 -3.26953,4.23633 -1.39455,1.16015 -3.03518,2.0332 -4.92187,2.61914 -1.88674,0.58593 -3.91994,0.8789 -6.09961,0.8789 -1.52345,0 -2.93556,-0.1289 -4.23633,-0.38672 -1.30079,-0.25781 -2.46095,-0.57422 -3.48047,-0.94922 -1.01954,-0.37499 -1.87501,-0.76171 -2.56641,-1.16015 -0.69141,-0.39844 -1.17187,-0.73828 -1.4414,-1.01953 -0.26954,-0.28125 -0.46876,-0.63867 -0.59766,-1.07227 -0.12891,-0.43359 -0.19336,-1.01367 -0.19336,-1.74023 0,-0.51562 0.0234,-0.94336 0.0703,-1.28321 0.0469,-0.33983 0.11719,-0.61522 0.21094,-0.82617 0.0937,-0.21093 0.21094,-0.35741 0.35156,-0.43945 0.14063,-0.082 0.30469,-0.12304 0.49219,-0.12305 0.32812,1e-5 0.79101,0.19923 1.38867,0.59766 0.59765,0.39844 1.36523,0.83204 2.30274,1.30078 0.93749,0.46876 2.06835,0.90821 3.39258,1.31836 1.3242,0.41016 2.8535,0.61524 4.58789,0.61523 1.31248,1e-5 2.51365,-0.17577 3.60351,-0.52734 1.08983,-0.35156 2.02733,-0.8496 2.8125,-1.49414 0.78514,-0.64453 1.38865,-1.43554 1.81055,-2.37305 0.42185,-0.93749 0.63279,-2.00389 0.63281,-3.19922 -2e-5,-1.28905 -0.29299,-2.39061 -0.8789,-3.30468 -0.58596,-0.91405 -1.3594,-1.71678 -2.32032,-2.40821 -0.96095,-0.69138 -2.05666,-1.3242 -3.28711,-1.89843 -1.23048,-0.5742 -2.49025,-1.16014 -3.77929,-1.75782 -1.28908,-0.59763 -2.54298,-1.25974 -3.76172,-1.98633 -1.21876,-0.72653 -2.3086,-1.582 -3.26953,-2.5664 -0.96095,-0.98435 -1.74024,-2.13865 -2.33789,-3.46289 -0.59766,-1.32419 -0.89649,-2.91208 -0.89649,-4.76367 0,-1.89841 0.3457,-3.59176 1.03711,-5.08008 0.6914,-1.48824 1.65234,-2.73629 2.88281,-3.74414 1.23046,-1.00777 2.69531,-1.77535 4.39454,-2.30274 1.6992,-0.5273 3.53318,-0.79097 5.50195,-0.79101 1.00779,4e-5 2.02146,0.0879 3.04101,0.26367 1.01951,0.17583 1.98045,0.4102 2.88282,0.70312 0.90232,0.29302 1.70505,0.62114 2.4082,0.98438 0.7031,0.36332 1.16599,0.65629 1.38867,0.87891 0.22263,0.22269 0.36911,0.39848 0.43945,0.52734 0.0703,0.12895 0.12888,0.29301 0.17579,0.49219 0.0468,0.19926 0.082,0.43949 0.10546,0.7207 0.0234,0.28129 0.0351,0.64457 0.0352,1.08984 -3e-5,0.42192 -0.0176,0.79692 -0.0527,1.125 -0.0352,0.32817 -0.0879,0.60356 -0.15821,0.82618 -0.0703,0.22269 -0.16995,0.38675 -0.29882,0.49218 -0.12894,0.10551 -0.27542,0.15824 -0.43946,0.15821 -0.25784,3e-5 -0.66213,-0.16403 -1.21289,-0.49219 -0.5508,-0.32809 -1.22463,-0.69723 -2.02148,-1.10742 -0.7969,-0.41012 -1.74026,-0.78512 -2.83008,-1.125 -1.08986,-0.33981 -2.31447,-0.50973 -3.67383,-0.50977 -1.26564,4e-5 -2.3672,0.16996 -3.30469,0.50977 -0.93751,0.33988 -1.71095,0.79105 -2.32031,1.35351 -0.60939,0.56254 -1.06642,1.23051 -1.37109,2.00391 -0.3047,0.77347 -0.45704,1.59378 -0.45703,2.46094 -10e-6,1.26565 0.29295,2.3555 0.8789,3.26953 0.58593,0.91409 1.36522,1.72268 2.33789,2.42578 0.97265,0.70315 2.08007,1.34768 3.32227,1.93359 1.24217,0.58597 2.50779,1.17776 3.79687,1.77539 1.28904,0.59768 2.55467,1.25393 3.79688,1.96875 1.24216,0.71487 2.34958,1.55862 3.32226,2.53125 0.97263,0.97268 1.75779,2.12112 2.35547,3.44532 0.59763,1.32423 0.89646,2.88868 0.89649,4.69335 z"
       id="path3624" />
  </g>
  <path
     d="m 114.7655,190.71885 -3.55604,-9.99999 7.1452,0 7.14521,0 -0.14724,0.42847 c -0.68734,2.00017 -6.87591,19.31444 -6.94351,19.42643 -0.0482,0.0798 -1.6878,-4.35491 -3.64362,-9.85491 l 0,0 z"
     id="path3977"
     style="fill:#800000;fill-opacity:1;fill-rule:evenodd;stroke:none" />
  <path
     d="m 71.763473,191.14732 -3.55604,-9.99999 7.1452,0 7.1452,0 -0.14724,0.42847 c -0.68734,2.00017 -6.87591,19.31444 -6.94351,19.42643 -0.04816,0.0798 -1.68779,-4.35491 -3.64361,-9.85491 l 0,0 z"
     id="path3979"
     style="fill:#800000;fill-opacity:1;fill-rule:evenodd;stroke:none" />
  <path
     d="m 31.763469,191.14732 -3.556037,-9.99999 7.145198,0 7.145207,0 -0.14724,0.42847 c -0.68734,2.00017 -6.875908,19.31444 -6.943508,19.42643 -0.04817,0.0798 -1.687796,-4.35491 -3.643618,-9.85491 l -2e-6,0 z"
     id="path3981"
     style="fill:#800000;fill-opacity:1;fill-rule:evenodd;stroke:none" />
  <path
     d="m 421.76348,186.14732 -3.55603,-9.99999 7.14519,0 7.14521,0 -0.14724,0.42847 c -0.68734,2.00017 -6.87591,19.31444 -6.94351,19.42643 -0.0482,0.0798 -1.68779,-4.35491 -3.64361,-9.85491 l -10e-6,0 z"
     id="path3983"
     style="fill:#800000;fill-opacity:1;fill-rule:evenodd;stroke:none" />
  <path
     d="m 454.76551,185.71885 -3.55603,-9.99999 7.14519,0 7.14521,0 -0.14724,0.42847 c -0.68734,2.00017 -6.87591,19.31444 -6.94351,19.42643 -0.0482,0.0798 -1.68779,-4.35491 -3.64361,-9.85491 l -10e-6,0 z"
     id="path3985"
     style="fill:#800000;fill-opacity:1;fill-rule:evenodd;stroke:none" />
  <path
     d="m 500.35264,186.14733 -3.55603,-9.99999 7.14519,0 7.14521,0 -0.14724,0.42847 c -0.68734,2.00017 -6.87591,19.31444 -6.94351,19.42643 -0.0482,0.0798 -1.68779,-4.35491 -3.64362,-9.85491 l 0,0 z"
     id="path3987"
     style="fill:#800000;fill-opacity:1;fill-rule:evenodd;stroke:none" />
  <path
     d="M 298.10221,323.93368 305,332 l -6.67242,2.55587 -6.67245,2.55589 -0.0158,-0.45279 c -0.0736,-2.11369 -0.48793,-20.49603 -0.46486,-20.6248 0.0164,-0.0917 3.13389,3.46304 6.92769,7.89951 l 1e-5,0 z"
     id="path3989"
     style="fill:#800000;fill-opacity:1;fill-rule:evenodd;stroke:none" />
  <path
     d="M 250.86157,325.38746 251,336 l -6.76285,-2.30598 -6.76286,-2.30601 0.27764,-0.35803 c 1.29608,-1.6713 12.74138,-16.06183 12.84152,-16.14601 0.0713,-0.06 0.192,4.66659 0.26811,10.50349 l 1e-5,0 z"
     id="path3991"
     style="fill:#800000;fill-opacity:1;fill-rule:evenodd;stroke:none" />
  <path
     d="m 244.98154,21.20106 7.73103,7.27161 -6.35628,3.26366 L 240,35 l -0.0647,-0.44842 c -0.30215,-2.09328 -2.7054,-20.32256 -2.69641,-20.45306 0.006,-0.09299 3.4906,3.10316 7.74267,7.10255 l 1e-5,-1e-5 z"
     id="path3993"
     style="fill:#800000;fill-opacity:1;fill-rule:evenodd;stroke:none" />
  <path
     d="m 295,25 -0.56887,10.59818 -6.59421,-2.75139 -6.59423,-2.7514 0.30088,-0.33873 c 1.40454,-1.58126 13.78309,-15.17736 13.8886,-15.25468 0.0752,-0.0551 -0.1193,4.66901 -0.43218,10.49802 L 295,25 z"
     id="path3995"
     style="fill:#800000;fill-opacity:1;fill-rule:evenodd;stroke:none" />
</svg>
