<?xml version="1.0" encoding="UTF-8" standalone="no"?>
<!-- Created with Inkscape (http://www.inkscape.org/) -->
<svg xmlns:svg="http://www.w3.org/2000/svg" xmlns="http://www.w3.org/2000/svg" version="1.0" width="651.18506" height="709.43671" viewBox="0 0 21000 29700" id="svg8610">
  <defs id="defs8931">
    <desc id="desc8616">Slide</desc>
    <desc id="desc8836">Drawing</desc>
  </defs>
  <g transform="translate(-1249.6991,-4651.7635)" style="visibility:visible" id="Default">
    <desc id="desc8613">Master slide</desc>
  </g>
  <g transform="matrix(1.4833771,0,0,1.4833771,-4921.9128,-6886.363)" style="visibility:visible" id="g8618">
    <desc id="desc8620">Drawing</desc>
    <g id="g8622">
      <g style="fill:#ff0000;stroke:none" id="g8624">
        <path d="M 6545,15819 L 6835,15753 L 7019,16031 L 7291,16419 L 7595,16815 L 7740,16985 L 7872,17118 L 7695,17315 L 7542,17170 L 7387,16999 L 7233,16809 L 7082,16607 L 6545,15819 z " id="path8626"/>
      </g>
      <g id="g8628"/>
    </g>
  </g>
  <g transform="matrix(1.4833771,0,0,1.4833771,-4921.9128,-6886.363)" style="visibility:visible" id="g8630">
    <desc id="desc8632">Drawing</desc>
    <g id="g8634">
      <g style="fill:#ff0000;stroke:none" id="g8636">
        <path d="M 8227,15335 L 8517,15269 L 8659,15480 L 8826,15710 L 8990,15917 L 9063,15999 L 9125,16060 L 8948,16257 L 8870,16187 L 8791,16105 L 8709,16010 L 8624,15902 L 8438,15646 L 8227,15335 z " id="path8638"/>
      </g>
      <g id="g8640"/>
    </g>
  </g>
  <g transform="matrix(1.4833771,0,0,1.4833771,-4921.9128,-6886.363)" style="visibility:visible" id="g8642">
    <desc id="desc8644">Drawing</desc>
    <g id="g8646">
      <g style="fill:#2323dc;stroke:none" id="g8648">
        <path d="M 10012,19743 L 7656,22373 L 6988,22172 L 6892,23732 L 8967,22855 L 8364,22630 L 10728,20009 L 10012,19743 z " id="path8650"/>
      </g>
      <g id="g8652"/>
    </g>
  </g>
  <g transform="matrix(1.4833771,0,0,1.4833771,-4921.9128,-6886.363)" style="visibility:visible" id="g8654">
    <desc id="desc8656">Drawing</desc>
    <g id="g8658">
      <g style="fill:#2323dc;stroke:none" id="g8660">
        <path d="M 10406,21746 L 10825,21746 L 10825,23740 L 10406,23740 L 10406,21746 z " id="path8662"/>
      </g>
      <g id="g8664"/>
    </g>
  </g>
  <g transform="matrix(1.4833771,0,0,1.4833771,-4921.9128,-6886.363)" style="visibility:visible" id="g8666">
    <desc id="desc8668">Drawing</desc>
    <g id="g8670">
      <g style="fill:#000000;stroke:none" id="g8672">
        <path d="M 1207,21834 L 1954,21834 L 1954,22196 L 1207,22196 L 1207,21834 z " id="path8674"/>
      </g>
      <g id="g8676"/>
    </g>
  </g>
  <g transform="matrix(1.4833771,0,0,1.4833771,-4921.9128,-6886.363)" style="visibility:visible" id="g8678">
    <desc id="desc8680">Drawing</desc>
    <g id="g8682">
      <g style="fill:#000000;stroke:none" id="g8684">
        <path d="M 16465,4641 L 16809,4641 L 16809,5129 L 17299,5129 L 17299,5460 L 16809,5460 L 16809,5947 L 16464,5947 L 16464,5460 L 15982,5460 L 15982,5129 L 16464,5129 L 16465,4641 z " id="path8686"/>
      </g>
      <g id="g8688"/>
    </g>
  </g>
  <g transform="matrix(1.4833771,0,0,1.4833771,-4921.9128,-6886.363)" style="visibility:visible" id="g8690">
    <desc id="desc8692">Drawing</desc>
    <g id="g8694">
      <g style="fill:#868452;stroke:none" id="g8696">
        <path d="M 18271,6024 L 17278,7127 L 17392,7144 L 17505,7169 L 17615,7201 L 17723,7241 L 17827,7289 L 17927,7344 L 18023,7406 L 18113,7475 L 18197,7550 L 18275,7632 L 18345,7720 L 18407,7815 L 18461,7915 L 18506,8022 L 18541,8134 L 18565,8251 L 19542,7182 L 19561,7126 L 19574,7068 L 19582,7010 L 19585,6951 L 19583,6891 L 19575,6831 L 19547,6713 L 19501,6596 L 19439,6484 L 19363,6378 L 19274,6281 L 19174,6193 L 19063,6117 L 18944,6055 L 18818,6009 L 18686,5981 L 18550,5973 L 18411,5987 L 18341,6002 L 18271,6024 z " id="path8698"/>
      </g>
      <g id="g8700"/>
    </g>
  </g>
  <g transform="matrix(1.4833771,0,0,1.4833771,-4921.9128,-6886.363)" style="visibility:visible" id="g8702">
    <desc id="desc8704">Drawing</desc>
    <g id="g8706">
      <g style="fill:#8d8f56;stroke:none" id="g8708">
        <path d="M 17444,7149 L 17530,7161 L 17618,7184 L 17708,7217 L 17799,7260 L 17890,7312 L 17979,7371 L 18066,7438 L 18149,7511 L 18228,7590 L 18301,7674 L 18368,7762 L 18428,7854 L 18479,7949 L 18520,8045 L 18550,8143 L 18569,8241 L 19526,7182 L 19547,7119 L 19561,7056 L 19570,6993 L 19573,6931 L 19570,6869 L 19562,6808 L 19531,6690 L 19483,6576 L 19420,6469 L 19343,6369 L 19256,6278 L 19159,6196 L 19056,6125 L 18949,6067 L 18839,6022 L 18730,5991 L 18623,5977 L 18571,5976 L 18520,5979 L 18471,5987 L 18424,6000 L 17444,7149 z " id="path8710"/>
      </g>
      <g id="g8712"/>
    </g>
  </g>
  <g transform="matrix(1.4833771,0,0,1.4833771,-4921.9128,-6886.363)" style="visibility:visible" id="g8714">
    <desc id="desc8716">Drawing</desc>
    <g id="g8718">
      <g style="fill:#bbb76e;stroke:none" id="g8720">
        <path d="M 17665,7211 L 17732,7233 L 17804,7265 L 17879,7306 L 17956,7355 L 18033,7411 L 18109,7473 L 18184,7540 L 18256,7613 L 18323,7689 L 18385,7767 L 18440,7848 L 18487,7931 L 18524,8013 L 18551,8095 L 18567,8176 L 18570,8216 L 18569,8255 L 19527,7182 L 19555,7064 L 19564,6950 L 19557,6839 L 19535,6732 L 19499,6630 L 19452,6534 L 19395,6443 L 19329,6360 L 19257,6284 L 19179,6216 L 19098,6156 L 19015,6106 L 18932,6065 L 18850,6035 L 18772,6016 L 18698,6008 L 17665,7211 z " id="path8722"/>
      </g>
      <g id="g8724"/>
    </g>
  </g>
  <g transform="matrix(1.4833771,0,0,1.4833771,-4921.9128,-6886.363)" style="visibility:visible" id="g8726">
    <desc id="desc8728">Drawing</desc>
    <g id="g8730">
      <g style="fill:#ffffa5;stroke:none" id="g8732">
        <path d="M 17939,7356 L 18032,7419 L 18129,7497 L 18225,7591 L 18317,7698 L 18360,7757 L 18401,7819 L 18438,7883 L 18472,7951 L 18503,8021 L 18528,8093 L 18549,8169 L 18565,8246 L 19528,7182 L 19547,7075 L 19555,6972 L 19553,6876 L 19541,6784 L 19521,6698 L 19493,6617 L 19458,6542 L 19418,6472 L 19373,6407 L 19324,6348 L 19273,6294 L 19220,6245 L 19165,6202 L 19111,6164 L 19058,6132 L 19007,6105 L 17939,7356 z " id="path8734"/>
      </g>
      <g id="g8736"/>
    </g>
  </g>
  <g transform="matrix(1.4833771,0,0,1.4833771,-4921.9128,-6886.363)" style="visibility:visible" id="g8738">
    <desc id="desc8740">Drawing</desc>
    <g id="g8742">
      <g style="fill:#f0f17c;stroke:none" id="g8744">
        <path d="M 18266,7625 L 18320,7695 L 18368,7765 L 18411,7836 L 18449,7910 L 18482,7986 L 18511,8065 L 18537,8148 L 18560,8236 L 19528,7183 L 19542,7117 L 19552,7054 L 19558,6995 L 19560,6939 L 19559,6885 L 19554,6833 L 19546,6784 L 19535,6737 L 19521,6690 L 19505,6646 L 19485,6602 L 19464,6558 L 19414,6473 L 19357,6386 L 18266,7625 z " id="path8746"/>
      </g>
      <g id="g8748"/>
    </g>
  </g>
  <g transform="matrix(1.4833771,0,0,1.4833771,-4921.9128,-6886.363)" style="visibility:visible" id="g8750">
    <desc id="desc8752">Drawing</desc>
    <g id="g8754">
      <g style="fill:#ff0000;stroke:none" id="g8756">
        <path d="M 6563,11239 L 6563,11698 L 6826,11698 L 7016,11697 L 7077,11695 L 7100,11694 L 7116,11693 L 7141,11689 L 7165,11684 L 7187,11677 L 7208,11669 L 7228,11659 L 7246,11648 L 7263,11636 L 7271,11629 L 7278,11622 L 7285,11615 L 7292,11607 L 7298,11599 L 7304,11590 L 7310,11581 L 7315,11572 L 7319,11563 L 7323,11554 L 7327,11544 L 7330,11533 L 7334,11512 L 7337,11490 L 7338,11467 L 7337,11444 L 7335,11423 L 7331,11403 L 7325,11383 L 7317,11365 L 7308,11348 L 7298,11331 L 7286,11316 L 7279,11309 L 7273,11302 L 7265,11296 L 7258,11290 L 7250,11285 L 7241,11280 L 7223,11271 L 7204,11263 L 7183,11256 L 7160,11251 L 7136,11247 L 7092,11244 L 7020,11242 L 6793,11239 L 6563,11239 z M 6563,12029 L 6563,12561 L 6935,12561 L 7033,12560 L 7112,12558 L 7170,12553 L 7192,12550 L 7209,12547 L 7231,12543 L 7251,12537 L 7271,12529 L 7290,12520 L 7308,12509 L 7324,12497 L 7340,12484 L 7355,12469 L 7368,12453 L 7379,12435 L 7389,12416 L 7397,12396 L 7403,12374 L 7407,12351 L 7410,12327 L 7411,12302 L 7410,12280 L 7408,12258 L 7405,12238 L 7400,12218 L 7394,12199 L 7387,12182 L 7378,12165 L 7368,12149 L 7356,12134 L 7343,12120 L 7329,12107 L 7314,12095 L 7298,12084 L 7281,12074 L 7262,12066 L 7242,12058 L 7218,12051 L 7189,12045 L 7153,12040 L 7112,12036 L 7012,12031 L 6888,12029 L 6563,12029 z M 6162,10910 L 6956,10910 L 7066,10911 L 7162,10915 L 7242,10922 L 7277,10926 L 7308,10931 L 7336,10936 L 7363,10943 L 7390,10951 L 7417,10960 L 7442,10971 L 7467,10983 L 7490,10997 L 7513,11012 L 7536,11028 L 7557,11046 L 7578,11064 L 7598,11084 L 7616,11106 L 7634,11128 L 7650,11152 L 7666,11177 L 7680,11203 L 7693,11230 L 7703,11258 L 7712,11287 L 7719,11316 L 7723,11346 L 7726,11377 L 7727,11408 L 7726,11443 L 7722,11477 L 7717,11510 L 7708,11543 L 7698,11575 L 7685,11606 L 7670,11636 L 7653,11665 L 7633,11693 L 7612,11720 L 7588,11744 L 7564,11767 L 7537,11788 L 7509,11807 L 7479,11824 L 7448,11840 L 7492,11855 L 7534,11871 L 7572,11890 L 7609,11911 L 7642,11935 L 7673,11961 L 7701,11990 L 7727,12021 L 7750,12054 L 7770,12087 L 7787,12123 L 7800,12159 L 7811,12197 L 7819,12236 L 7823,12276 L 7825,12318 L 7824,12352 L 7821,12386 L 7816,12420 L 7809,12453 L 7800,12486 L 7789,12518 L 7776,12551 L 7761,12583 L 7745,12614 L 7728,12643 L 7708,12671 L 7688,12697 L 7665,12722 L 7641,12745 L 7616,12767 L 7590,12787 L 7562,12805 L 7532,12822 L 7501,12836 L 7468,12849 L 7434,12859 L 7398,12868 L 7360,12876 L 7321,12881 L 7253,12886 L 7150,12890 L 6838,12895 L 6162,12895 L 6162,10910 z " id="path8758"/>
      </g>
      <g id="g8760"/>
    </g>
  </g>
  <g transform="matrix(1.4833771,0,0,1.4833771,-4921.9128,-6886.363)" style="visibility:visible" id="g8762">
    <desc id="desc8764">Drawing</desc>
    <g id="g8766">
      <g style="fill:#40884a;stroke:none" id="g8768">
        <path d="M 3581,21778 L 16778,7226 L 16836,7190 L 16901,7162 L 16972,7141 L 17048,7127 L 17128,7120 L 17211,7119 L 17298,7125 L 17385,7136 L 17474,7153 L 17563,7176 L 17650,7203 L 17736,7236 L 17819,7272 L 17898,7314 L 17973,7359 L 18043,7408 L 18121,7473 L 18195,7545 L 18263,7623 L 18325,7706 L 18381,7792 L 18431,7881 L 18475,7972 L 18512,8064 L 18542,8156 L 18565,8247 L 18581,8336 L 18589,8422 L 18590,8505 L 18583,8582 L 18567,8654 L 18543,8719 L 5484,23257 L 5406,23339 L 5323,23407 L 5236,23461 L 5144,23501 L 5050,23530 L 4953,23546 L 4854,23551 L 4753,23545 L 4652,23529 L 4551,23504 L 4351,23428 L 4158,23321 L 3978,23188 L 3814,23034 L 3674,22864 L 3560,22683 L 3515,22589 L 3479,22495 L 3453,22400 L 3436,22306 L 3430,22212 L 3435,22120 L 3452,22030 L 3482,21943 L 3524,21858 L 3581,21778 z " id="path8770"/>
      </g>
      <g id="g8772"/>
    </g>
  </g>
  <g transform="matrix(1.4833771,0,0,1.4833771,-4921.9128,-6886.363)" style="visibility:visible" id="g8774">
    <desc id="desc8776">Drawing</desc>
    <g id="g8778">
      <g style="fill:#4b914d;stroke:none" id="g8780">
        <path d="M 4039,21548 L 17249,7150 L 17485,7175 L 17574,7187 L 17614,7194 L 17654,7204 L 17692,7216 L 17731,7232 L 17772,7251 L 17816,7274 L 17914,7337 L 18034,7425 L 18112,7490 L 18185,7562 L 18253,7640 L 18315,7723 L 18370,7809 L 18420,7897 L 18463,7988 L 18499,8079 L 18529,8169 L 18551,8258 L 18567,8345 L 18574,8428 L 18575,8507 L 18567,8580 L 18551,8647 L 18540,8677 L 18527,8706 L 5484,23223 L 5513,23143 L 5534,23064 L 5547,22985 L 5553,22906 L 5552,22828 L 5544,22750 L 5510,22598 L 5452,22450 L 5374,22309 L 5278,22176 L 5167,22052 L 5043,21938 L 4909,21836 L 4768,21747 L 4621,21673 L 4473,21614 L 4324,21573 L 4179,21551 L 4039,21548 z " id="path8782"/>
      </g>
      <g id="g8784"/>
    </g>
  </g>
  <g transform="matrix(1.4833771,0,0,1.4833771,-4921.9128,-6886.363)" style="visibility:visible" id="g8786">
    <desc id="desc8788">Drawing</desc>
    <g id="g8790">
      <g style="fill:#58b25a;stroke:none" id="g8792">
        <path d="M 4395,21583 L 17520,7182 L 17633,7211 L 17685,7228 L 17739,7249 L 17798,7277 L 17864,7314 L 17942,7363 L 18034,7425 L 18115,7487 L 18189,7557 L 18258,7633 L 18320,7715 L 18376,7800 L 18425,7889 L 18468,7980 L 18504,8072 L 18533,8163 L 18555,8253 L 18569,8341 L 18576,8425 L 18576,8505 L 18567,8579 L 18551,8647 L 18540,8677 L 18527,8706 L 5484,23232 L 5527,23093 L 5548,22956 L 5549,22821 L 5532,22691 L 5497,22564 L 5447,22442 L 5382,22325 L 5304,22213 L 5215,22108 L 5117,22009 L 5009,21917 L 4895,21833 L 4775,21757 L 4650,21689 L 4523,21631 L 4395,21583 z " id="path8794"/>
      </g>
      <g id="g8796"/>
    </g>
  </g>
  <g transform="matrix(1.4833771,0,0,1.4833771,-4921.9128,-6886.363)" style="visibility:visible" id="g8798">
    <desc id="desc8800">Drawing</desc>
    <g id="g8802">
      <g style="fill:#94fb8e;stroke:none" id="g8804">
        <path d="M 4760,21740 L 17819,7284 L 17912,7329 L 18002,7388 L 18089,7458 L 18170,7538 L 18247,7626 L 18317,7721 L 18381,7822 L 18437,7926 L 18484,8032 L 18523,8139 L 18552,8245 L 18571,8348 L 18579,8448 L 18574,8541 L 18568,8586 L 18557,8628 L 18544,8668 L 18527,8706 L 5484,23232 L 5520,23103 L 5540,22979 L 5546,22861 L 5539,22748 L 5518,22640 L 5487,22538 L 5445,22439 L 5394,22346 L 5334,22257 L 5266,22171 L 5192,22090 L 5113,22013 L 4941,21870 L 4760,21740 z " id="path8806"/>
      </g>
      <g id="g8808"/>
    </g>
  </g>
  <g transform="matrix(1.4833771,0,0,1.4833771,-4921.9128,-6886.363)" style="visibility:visible" id="g8810">
    <desc id="desc8812">Drawing</desc>
    <g id="g8814">
      <g style="fill:#6cf36e;stroke:none" id="g8816">
        <path d="M 5234,22127 L 18288,7678 L 18360,7790 L 18426,7909 L 18484,8034 L 18509,8099 L 18530,8164 L 18547,8231 L 18561,8298 L 18569,8365 L 18573,8433 L 18571,8501 L 18563,8570 L 18549,8638 L 18528,8706 L 5484,23233 L 5510,23119 L 5528,23015 L 5538,22921 L 5542,22835 L 5539,22757 L 5531,22685 L 5517,22620 L 5498,22559 L 5475,22501 L 5448,22447 L 5385,22343 L 5234,22127 z " id="path8818"/>
      </g>
      <g id="g8820"/>
    </g>
  </g>
  <g transform="matrix(1.4833771,0,0,1.4833771,-4921.9128,-6886.363)" style="visibility:visible" id="g8822">
    <desc id="desc8824">Drawing</desc>
    <g id="g8826">
      <g style="fill:#62cb60;stroke:none" id="g8828">
        <path d="M 5535,22922 L 18577,8412 L 18580,8449 L 18581,8483 L 18579,8516 L 18575,8548 L 18568,8581 L 18559,8615 L 18534,8693 L 5487,23233 L 5514,23122 L 5521,23082 L 5526,23049 L 5535,22922 z " id="path8830"/>
      </g>
      <g id="g8832"/>
    </g>
  </g>
  <g transform="matrix(1.4833771,0,0,1.4833771,-4921.9128,-6886.363)" style="visibility:visible" id="g8838">
    <g style="fill:#ff0000;stroke:none" id="g8840">
      <path d="M 11878.159,16136 L 12071,16233 L 12341,16314 L 12475,16345 L 12609,16368 L 12742,16381 L 12874,16384 L 13004,16374 L 13134,16352 L 13263,16314 L 13391,16261 L 13517,16191 L 13642,16102 L 13766,15994 L 13888,15864 L 13945,15791 L 13995,15714 L 14039,15632 L 14075,15547 L 14130,15365 L 14159,15172 L 14165,14969 L 14149,14759 L 14111,14545 L 14054,14330 L 13979,14115 L 13886,13904 L 13777,13699 L 13654,13502 L 13517,13317 L 13367,13146 L 13207,12991 L 13037,12855 L 12701,12629 L 12387,12453 L 12238,12382 L 12094,12323 L 11954,12274 L 11818,12236 L 11684,12208 L 11554,12190 L 11426,12181 L 11301,12181 L 11177,12189 L 11054,12207 L 10932,12231 L 10811,12264 L 10958,12582 L 9936,12310 L 10357,11572 L 10641,11924 L 10775,11883 L 10916,11854 L 11064,11837 L 11218,11832 L 11379,11840 L 11544,11860 L 11715,11893 L 11889,11940 L 12068,11999 L 12249,12071 L 12434,12158 L 12620,12258 L 12808,12371 L 12998,12499 L 13377,12798 L 13560,12969 L 13728,13152 L 13881,13347 L 14019,13550 L 14140,13761 L 14243,13977 L 14329,14198 L 14396,14420 L 14444,14643 L 14471,14865 L 14478,15083 L 14463,15297 L 14426,15504 L 14365,15703 L 14281,15891 L 14172,16068 L 14064,16199 L 13941,16312 L 13804,16408 L 13656,16488 L 13498,16552 L 13333,16600 L 13161,16634 L 12985,16654 L 12807,16661 L 12628,16654 L 12451,16635 L 12277,16604 L 12108,16562 L 11946,16510 L 11793,16447 L 11672.589,16367.804 L 11878.159,16136 z " id="path8842"/>
    </g>
    <g id="g8844"/>
  </g>
  <g transform="matrix(1.4833771,0,0,1.4833771,-4921.9128,-6886.363)" style="visibility:visible" id="g8846">
    <desc id="desc8848">Drawing</desc>
    <g id="g8850">
      <g style="fill:#ff0000;stroke:none" id="g8852">
        <path d="M 10707.917,17440.779 L 11265,17733 L 11585,17874 L 11911,17997 L 12242,18101 L 12575,18182 L 12910,18240 L 13242,18271 L 13572,18273 L 13897,18245 L 14215,18183 L 14524,18085 L 14823,17950 L 15109,17775 L 15381,17557 L 15637,17295 L 15753,17149 L 15853,16995 L 15939,16835 L 16011,16669 L 16115,16320 L 16168,15954 L 16174,15576 L 16139,15188 L 16065,14797 L 15957,14406 L 15818,14020 L 15654,13643 L 15467,13280 L 15262,12936 L 15044,12614 L 14815,12320 L 14580,12058 L 14343,11832 L 14022,11566 L 13698,11326 L 13374,11112 L 13050,10922 L 12728,10756 L 12408,10614 L 12094,10495 L 11785,10399 L 11483,10325 L 11190,10272 L 10907,10240 L 10635,10229 L 10375,10238 L 10130,10267 L 9900,10314 L 9687,10380 L 9834,10698 L 8812,10426 L 9233,9688 L 9517,10040 L 9748,9964 L 10004,9913 L 10283,9887 L 10581,9885 L 10897,9907 L 11226,9954 L 11567,10025 L 11917,10122 L 12272,10242 L 12630,10387 L 12989,10557 L 13344,10751 L 13694,10970 L 14036,11214 L 14366,11482 L 14683,11775 L 14878,11980 L 15085,12220 L 15509,12797 L 15715,13126 L 15909,13478 L 16086,13849 L 16239,14237 L 16363,14636 L 16451,15045 L 16499,15459 L 16500,15876 L 16449,16292 L 16339,16703 L 16165,17107 L 15921,17499 L 15695,17763 L 15435,17987 L 15144,18172 L 14827,18320 L 14488,18431 L 14132,18508 L 13761,18552 L 13382,18563 L 12997,18543 L 12610,18494 L 12227,18416 L 11851,18311 L 11487,18181 L 11138,18026 L 10809,17847 L 10515.569,17654.713 L 10707.917,17440.779 z " id="path8854"/>
      </g>
      <g id="g8856"/>
    </g>
  </g>
  <g transform="matrix(1.4833771,0,0,1.4833771,-4921.9128,-6886.363)" style="visibility:visible" id="g8858">
    <desc id="desc8860">Drawing</desc>
    <g id="g8862">
      <g style="fill:#ff0000;stroke:none" id="g8864">
        <path d="M 9574.2765,18703.989 L 10701,19308 L 11275,19575 L 11840,19800 L 12394,19980 L 12937,20114 L 13467,20200 L 13984,20238 L 14486,20224 L 14973,20159 L 15444,20040 L 15897,19865 L 16331,19634 L 16746,19345 L 17141,18996 L 17514,18586 L 17683,18360 L 17827,18126 L 17949,17882 L 18047,17631 L 18182,17109 L 18237,16565 L 18221,16005 L 18139,15435 L 18000,14860 L 17810,14288 L 17576,13723 L 17306,13173 L 17006,12642 L 16683,12137 L 16345,11664 L 15998,11228 L 15650,10836 L 15307,10494 L 14818,10070 L 14321,9698 L 13820,9378 L 13319,9104 L 12820,8875 L 12328,8687 L 11847,8539 L 11379,8426 L 10929,8346 L 10499,8296 L 10095,8273 L 9719,8274 L 9374,8297 L 9066,8338 L 8796,8395 L 8569,8464 L 8716,8782 L 7694,8510 L 8115,7772 L 8399,8124 L 8640,8043 L 8925,7979 L 9252,7934 L 9616,7911 L 10015,7914 L 10444,7944 L 10900,8005 L 11380,8101 L 11880,8233 L 12396,8405 L 12926,8620 L 13465,8880 L 14010,9189 L 14558,9550 L 15105,9965 L 15647,10437 L 15907,10698 L 16198,11028 L 16832,11864 L 17466,12887 L 17758,13450 L 18020,14039 L 18241,14646 L 18412,15263 L 18521,15884 L 18560,16501 L 18517,17108 L 18462,17405 L 18382,17696 L 18278,17981 L 18146,18259 L 17987,18529 L 17798,18790 L 17468,19164 L 17103,19498 L 16704,19790 L 16275,20039 L 15817,20242 L 15332,20398 L 14820,20504 L 14286,20558 L 13729,20559 L 13153,20504 L 12558,20391 L 11948,20218 L 11323,19984 L 10685,19685 L 10037,19321 L 9385.7846,18910.21 L 9574.2765,18703.989 z " id="path8866"/>
      </g>
      <g id="g8868"/>
    </g>
  </g>
  <g transform="matrix(1.4833771,0,0,1.4833771,-4921.9128,-6886.363)" style="visibility:visible" id="g8870">
    <desc id="desc8872">Drawing</desc>
    <g id="g8874">
      <g style="fill:#868452;stroke:none" id="g8876">
        <path d="M 3940,21898 L 2557,23442 L 2529,23510 L 2509,23578 L 2496,23647 L 2492,23715 L 2494,23782 L 2503,23849 L 2518,23915 L 2539,23980 L 2597,24104 L 2675,24221 L 2769,24328 L 2876,24424 L 2993,24507 L 3118,24573 L 3247,24623 L 3377,24653 L 3442,24661 L 3506,24663 L 3568,24659 L 3630,24649 L 3689,24632 L 3746,24610 L 3801,24580 L 3852,24544 L 5211,23056 L 5230,23000 L 5243,22942 L 5251,22884 L 5254,22825 L 5252,22765 L 5244,22705 L 5216,22587 L 5170,22470 L 5108,22358 L 5032,22252 L 4943,22155 L 4843,22067 L 4732,21991 L 4613,21929 L 4487,21883 L 4355,21855 L 4219,21847 L 4080,21861 L 4010,21876 L 3940,21898 z " id="path8878"/>
      </g>
      <g id="g8880"/>
    </g>
  </g>
  <g transform="matrix(1.4833771,0,0,1.4833771,-4921.9128,-6886.363)" style="visibility:visible" id="g8882">
    <desc id="desc8884">Drawing</desc>
    <g id="g8886">
      <g style="fill:#8d8f56;stroke:none" id="g8888">
        <path d="M 2911,23225 L 3006,23231 L 3107,23250 L 3211,23280 L 3315,23321 L 3419,23372 L 3519,23434 L 3614,23505 L 3701,23585 L 3779,23674 L 3845,23770 L 3897,23874 L 3933,23985 L 3945,24043 L 3952,24103 L 3953,24164 L 3949,24226 L 3940,24290 L 3925,24355 L 3876,24488 L 5195,23056 L 5216,22993 L 5230,22930 L 5239,22867 L 5242,22805 L 5239,22743 L 5231,22682 L 5200,22564 L 5152,22450 L 5089,22343 L 5012,22243 L 4925,22152 L 4828,22070 L 4725,21999 L 4618,21941 L 4508,21896 L 4399,21865 L 4292,21851 L 4240,21850 L 4189,21853 L 4140,21861 L 4093,21874 L 2911,23225 z " id="path8890"/>
      </g>
      <g id="g8892"/>
    </g>
  </g>
  <g transform="matrix(1.4833771,0,0,1.4833771,-4921.9128,-6886.363)" style="visibility:visible" id="g8894">
    <desc id="desc8896">Drawing</desc>
    <g id="g8898">
      <g style="fill:#bbb76e;stroke:none" id="g8900">
        <path d="M 3152,23258 L 3222,23278 L 3297,23306 L 3376,23344 L 3458,23390 L 3538,23444 L 3617,23506 L 3692,23576 L 3762,23653 L 3823,23736 L 3875,23826 L 3915,23923 L 3942,24025 L 3954,24133 L 3948,24247 L 3923,24365 L 3877,24488 L 5196,23056 L 5224,22938 L 5233,22824 L 5226,22713 L 5204,22606 L 5168,22504 L 5121,22408 L 5064,22317 L 4998,22234 L 4926,22158 L 4848,22090 L 4767,22030 L 4684,21980 L 4601,21939 L 4519,21909 L 4441,21890 L 4367,21882 L 3152,23258 z " id="path8902"/>
      </g>
      <g id="g8904"/>
    </g>
  </g>
  <g transform="matrix(1.4833771,0,0,1.4833771,-4921.9128,-6886.363)" style="visibility:visible" id="g8906">
    <desc id="desc8908">Drawing</desc>
    <g id="g8910">
      <g style="fill:#ffffa5;stroke:none" id="g8912">
        <path d="M 3418,23354 L 3517,23420 L 3572,23462 L 3627,23509 L 3683,23561 L 3737,23620 L 3788,23683 L 3834,23752 L 3875,23827 L 3908,23906 L 3933,23991 L 3948,24080 L 3951,24175 L 3941,24274 L 3918,24379 L 3878,24488 L 5197,23056 L 5216,22949 L 5224,22847 L 5221,22750 L 5209,22659 L 5189,22574 L 5160,22494 L 5125,22419 L 5085,22350 L 5040,22286 L 4991,22227 L 4939,22174 L 4885,22126 L 4831,22083 L 4776,22046 L 4723,22014 L 4672,21987 L 3418,23354 z " id="path8914"/>
      </g>
      <g id="g8916"/>
    </g>
  </g>
  <g transform="matrix(1.4833771,0,0,1.4833771,-4921.9128,-6886.363)" style="visibility:visible" id="g8918">
    <desc id="desc8920">Drawing</desc>
    <g id="g8922">
      <g style="fill:#f0f17c;stroke:none" id="g8924">
        <path d="M 3763,23644 L 3818,23717 L 3844,23757 L 3868,23799 L 3889,23842 L 3909,23889 L 3925,23937 L 3938,23988 L 3947,24041 L 3952,24097 L 3953,24155 L 3949,24216 L 3940,24280 L 3925,24347 L 3905,24416 L 3878,24489 L 5197,23057 L 5211,22991 L 5221,22928 L 5227,22869 L 5229,22813 L 5228,22759 L 5223,22707 L 5215,22658 L 5204,22611 L 5190,22564 L 5174,22520 L 5154,22476 L 5133,22432 L 5083,22347 L 5026,22260 L 3763,23644 z " id="path8926"/>
      </g>
      <g id="g8928"/>
    </g>
  </g>
</svg>